<?xml version="1.0" encoding="iso-8859-1"?>
<!-- Generator: Adobe Illustrator 19.0.0, SVG Export Plug-In . SVG Version: 6.00 Build 0)  -->
<svg version="1.1" id="Capa_1" xmlns="http://www.w3.org/2000/svg" xmlns:xlink="http://www.w3.org/1999/xlink" x="0px" y="0px"
	 viewBox="0 0 512 512" style="enable-background:new 0 0 512 512;" xml:space="preserve">
<path style="fill:#8DA448;" d="M335.896,287.192v-70.85h52.097v-55.238c0-19.534,15.891-35.424,35.425-35.424
	c19.533,0,35.424,15.891,35.424,35.424v69.488c0,31.21-25.39,56.6-56.599,56.6H335.896z"/>
<path style="fill:#69803A;" d="M176.105,394.275v-70.85h-41.82v-89.73c0-19.534-15.891-35.424-35.425-35.424
	c-19.533,0-35.424,15.891-35.424,35.424v103.98c0,31.21,25.39,56.6,56.599,56.6H176.105z"/>
<path d="M502,512c-0.65,0-1.311-0.07-1.95-0.2c-0.64-0.12-1.27-0.32-1.87-0.57c-0.61-0.25-1.189-0.56-1.729-0.92
	c-0.551-0.36-1.061-0.78-1.521-1.24c-0.46-0.46-0.88-0.97-1.24-1.52c-0.37-0.54-0.67-1.12-0.92-1.73c-0.25-0.6-0.45-1.23-0.569-1.87
	c-0.131-0.64-0.2-1.3-0.2-1.95c0-0.65,0.069-1.31,0.2-1.95c0.119-0.64,0.319-1.27,0.569-1.87c0.25-0.61,0.55-1.19,0.92-1.73
	c0.36-0.55,0.78-1.06,1.24-1.52c0.46-0.46,0.97-0.88,1.521-1.24c0.54-0.36,1.119-0.67,1.729-0.92c0.601-0.25,1.23-0.45,1.87-0.57
	c1.29-0.26,2.62-0.26,3.9,0c0.64,0.12,1.27,0.32,1.869,0.57c0.61,0.25,1.19,0.56,1.73,0.92c0.55,0.36,1.06,0.78,1.52,1.24
	c0.461,0.46,0.881,0.97,1.24,1.52c0.36,0.54,0.67,1.12,0.92,1.73c0.25,0.6,0.45,1.23,0.57,1.87c0.13,0.64,0.2,1.3,0.2,1.95
	c0,0.65-0.07,1.31-0.2,1.95c-0.12,0.64-0.32,1.27-0.57,1.87c-0.25,0.61-0.56,1.19-0.92,1.73c-0.359,0.55-0.779,1.06-1.24,1.52
	c-0.46,0.46-0.97,0.88-1.52,1.24c-0.54,0.36-1.12,0.67-1.73,0.92c-0.6,0.25-1.229,0.45-1.869,0.57
	C503.31,511.93,502.649,512,502,512z"/>
<path d="M10.001,512c-0.65,0-1.31-0.06-1.95-0.19s-1.27-0.33-1.87-0.58c-0.61-0.25-1.19-0.56-1.73-0.92
	c-0.55-0.36-1.06-0.78-1.52-1.24s-0.88-0.97-1.24-1.52c-0.36-0.54-0.67-1.12-0.92-1.72c-0.25-0.61-0.45-1.24-0.57-1.88
	c-0.13-0.64-0.2-1.3-0.2-1.95s0.07-1.31,0.2-1.95c0.12-0.64,0.32-1.27,0.57-1.87c0.25-0.61,0.56-1.19,0.92-1.73
	c0.36-0.55,0.78-1.06,1.24-1.52s0.97-0.88,1.52-1.24c0.54-0.36,1.12-0.67,1.73-0.92c0.6-0.25,1.23-0.45,1.87-0.57
	c3.25-0.66,6.7,0.41,9.02,2.73c0.46,0.46,0.88,0.97,1.24,1.52c0.36,0.54,0.67,1.12,0.92,1.73c0.25,0.6,0.45,1.23,0.57,1.87
	c0.13,0.64,0.2,1.3,0.2,1.95c0,0.65-0.07,1.31-0.2,1.95c-0.12,0.64-0.32,1.27-0.57,1.88c-0.25,0.6-0.56,1.18-0.92,1.72
	c-0.36,0.55-0.78,1.06-1.24,1.52C15.211,510.93,12.631,512,10.001,512z"/>
<path style="fill:#8DA448;" d="M256,33.519c-44.125,0-79.896,35.771-79.896,79.896V502H256V33.519L256,33.519z"/>
<path style="fill:#69803A;" d="M335.896,113.415c0-44.125-35.771-79.896-79.896-79.896l0,0V502h79.896V113.415z"/>
<path d="M459.002,492H345.896V297.192h56.348c36.723,0,66.599-29.876,66.599-66.6v-69.488c0-25.047-20.377-45.424-45.424-45.424
	s-45.425,20.377-45.425,45.424v45.238h-32.098v-92.927c0-49.569-40.327-89.896-89.896-89.896s-89.896,40.327-89.896,89.896v200.01
	h-21.82v-79.73c0-25.047-20.377-45.425-45.425-45.425c-25.047,0-45.424,20.377-45.424,45.425v103.98
	c0,36.724,29.876,66.6,66.599,66.6h46.07V492H53c-5.523,0-10,4.477-10,10s4.477,10,10,10h406.002c5.522,0,10-4.477,10-10
	S464.523,492,459.002,492z M387.994,226.342c5.522,0,10-4.477,10-10v-55.238c0-14.019,11.405-25.424,25.425-25.424
	c14.019,0,25.424,11.405,25.424,25.424v69.488c0,25.695-20.904,46.6-46.599,46.6h-56.348v-50.85L387.994,226.342L387.994,226.342z
	 M166.105,384.275h-46.069c-25.695,0-46.599-20.905-46.599-46.6v-103.98c0-14.019,11.405-25.425,25.424-25.425
	c14.02,0,25.425,11.406,25.425,25.425v89.73c0,5.523,4.477,10,10,10h31.82L166.105,384.275z M186.105,492V113.415
	c0-35.146,26.075-64.317,59.896-69.183V492H186.105z M266,492V44.232c33.821,4.866,59.896,34.036,59.896,69.183V492H266z"/>
<path d="M295.948,153.682c-5.522,0-10-4.477-10-10v-5c0-5.523,4.478-10,10-10c5.522,0,10,4.477,10,10v5
	C305.948,149.205,301.471,153.682,295.948,153.682z"/>
<path d="M295.948,308.012c-5.522,0-10-4.477-10-10v-9.354c0-5.523,4.478-10,10-10c5.522,0,10,4.477,10,10v9.354
	C305.948,303.535,301.471,308.012,295.948,308.012z M295.948,256.568c-5.522,0-10-4.477-10-10v-9.354c0-5.523,4.478-10,10-10
	c5.522,0,10,4.477,10,10v9.354C305.948,252.091,301.471,256.568,295.948,256.568z M295.948,205.125c-5.522,0-10-4.477-10-10v-9.354
	c0-5.523,4.478-10,10-10c5.522,0,10,4.477,10,10v9.354C305.948,200.648,301.471,205.125,295.948,205.125z"/>
<path d="M295.948,355.102c-5.522,0-10-4.477-10-10v-5c0-5.523,4.478-10,10-10c5.522,0,10,4.477,10,10v5
	C305.948,350.625,301.471,355.102,295.948,355.102z"/>
<path d="M216.053,221.436c-5.523,0-10-4.477-10-10v-5c0-5.523,4.477-10,10-10s10,4.477,10,10v5
	C226.053,216.959,221.576,221.436,216.053,221.436z"/>
<path d="M216.053,391.482c-5.523,0-10-4.477-10-10v-10.306c0-5.523,4.477-10,10-10s10,4.477,10,10v10.306
	C226.053,387.005,221.576,391.482,216.053,391.482z M216.053,334.8c-5.523,0-10-4.477-10-10v-10.306c0-5.523,4.477-10,10-10
	s10,4.477,10,10V324.8C226.053,330.323,221.576,334.8,216.053,334.8z M216.053,278.118c-5.523,0-10-4.477-10-10v-10.306
	c0-5.523,4.477-10,10-10s10,4.477,10,10v10.306C226.053,273.641,221.576,278.118,216.053,278.118z"/>
<path d="M216.053,442.858c-5.523,0-10-4.477-10-10v-5c0-5.523,4.477-10,10-10s10,4.477,10,10v5
	C226.053,438.381,221.576,442.858,216.053,442.858z"/>
<circle style="fill:#F5A740;" cx="87.001" cy="67.19" r="57.19"/>
<path d="M87.002,134.382c-37.049,0-67.191-30.142-67.191-67.191S49.953,0,87.002,0s67.191,30.142,67.191,67.191
	S124.051,134.382,87.002,134.382z M87.002,20C60.98,20,39.811,41.17,39.811,67.191s21.17,47.191,47.191,47.191
	s47.191-21.17,47.191-47.191C134.193,41.17,113.023,20,87.002,20z"/>
<g>
</g>
<g>
</g>
<g>
</g>
<g>
</g>
<g>
</g>
<g>
</g>
<g>
</g>
<g>
</g>
<g>
</g>
<g>
</g>
<g>
</g>
<g>
</g>
<g>
</g>
<g>
</g>
<g>
</g>
</svg>
