<svg id="Capa_1" enable-background="new 0 0 512 512" height="512" viewBox="0 0 512 512" width="512" xmlns="http://www.w3.org/2000/svg"><g><g><ellipse cx="436.5" cy="310.399" fill="#b3e59f" rx="68" ry="76.899"/><path d="m436.5 233.5c-5.157 0-10.172.671-15 1.9 30.334 7.727 53 38.36 53 74.998s-22.666 67.271-53 74.998c4.828 1.23 9.843 1.901 15 1.901 37.555 0 68-34.429 68-76.899s-30.445-76.898-68-76.898z" fill="#95d6a4"/><g><path d="m316.116 7.5c-30.758 0-55.693 24.934-55.693 55.692v.073c0 3.871-2.605 7.295-6.363 8.225-17.662 4.373-30.758 20.319-30.758 39.333 0 1.642.1 3.261.291 4.851.444 3.686-1.728 7.205-5.183 8.564-23.354 9.192-39.887 31.938-39.887 58.555 0 28.477 18.924 52.524 44.878 60.282.156 1.612 3.372 29.965 28.126 41.814 18.509 8.86 36.361 2.414 40.56.748 13.504-5.356 21.075-14.921 24.028-19.129 2.953 4.209 10.524 13.773 24.028 19.129 4.199 1.665 22.051 8.112 40.56-.748 24.753-11.849 27.97-40.201 28.126-41.814 25.954-7.758 44.878-31.805 44.878-60.282 0-26.618-16.533-49.363-39.887-58.555-3.455-1.36-5.627-4.878-5.183-8.564.192-1.59.291-3.208.291-4.851 0-19.014-13.096-34.961-30.758-39.333-3.758-.93-6.363-4.354-6.363-8.225v-.073c.002-30.758-24.933-55.692-55.691-55.692z" fill="#b3e59f"/><g><path d="m413.821 124.239c-3.454-1.36-5.627-4.878-5.182-8.564.192-1.59.292-3.209.292-4.851 0-19.014-13.096-34.961-30.758-39.333-3.758-.93-6.363-4.354-6.363-8.225v-.073c0-30.758-24.935-55.692-55.692-55.692-5.199 0-10.226.728-15 2.061 23.469 6.551 40.692 28.073 40.692 53.632v.073c0 3.871 2.605 7.295 6.363 8.225 17.662 4.372 30.758 20.319 30.758 39.333 0 1.642-.1 3.261-.292 4.851-.445 3.686 1.728 7.204 5.182 8.564 23.354 9.192 39.887 31.938 39.887 58.555 0 27.228-17.3 50.406-41.504 59.168-2.015.729-3.499 2.445-3.904 4.549-1.585 8.218-7.477 28.749-27.595 38.379-1.984.95-3.958 1.714-5.912 2.337 7.478 2.179 21.495 4.565 35.912-2.337 24.753-11.849 27.97-40.201 28.126-41.814 25.954-7.758 44.877-31.804 44.877-60.282 0-26.619-16.533-49.364-39.887-58.556z" fill="#95d6a4"/></g></g><g><path d="m230.306 256.048c0 68.777-49.877 124.532-111.403 124.532s-111.403-55.755-111.403-124.532 49.877-248.548 111.403-248.548 111.403 179.771 111.403 248.548z" fill="#95d6a4"/><path d="m118.903 7.5c-5.087 0-10.094 1.236-15 3.529 54.432 25.446 96.403 181.928 96.403 245.019 0 63.09-41.972 115.215-96.403 123.405 4.907.738 9.912 1.127 15 1.127 61.526 0 111.403-55.755 111.403-124.532s-49.876-248.548-111.403-248.548z" fill="#78c2a4"/></g></g><path d="m504.5 497h-60.5v-102.619c38.123-4.223 68-40.272 68-83.981 0-42.989-28.907-78.549-66.129-83.727 7.431-9.321 12.509-20.525 14.455-32.698.653-4.09-2.133-7.936-6.223-8.59-4.104-.646-7.937 2.133-8.59 6.223-3.185 19.938-17.116 36.514-35.866 43.307-4.478 1.622-7.815 5.523-8.713 10.178-1.394 7.222-6.472 24.896-23.472 33.032-14.668 7.02-29.058 2.717-34.555.544-9.255-3.674-15.452-9.674-19.291-14.63v-32.411l32.765-32.763c2.929-2.93 2.929-7.678 0-10.607-2.93-2.927-7.679-2.929-10.606 0l-22.158 22.157v-49.657c0-4.143-3.357-7.5-7.5-7.5s-7.5 3.357-7.5 7.5v35.263l-22.157-22.157c-2.93-2.928-7.678-2.928-10.607 0-2.929 2.93-2.929 7.678 0 10.607l32.765 32.765v46.808c-3.854 4.962-10.061 10.962-19.283 14.623-5.507 2.176-19.896 6.48-34.562-.539-7.103-3.404-12.832-8.821-17.091-16.07 1.305-33.15-8.28-81.597-22.53-128.023 1.943-1.051 3.947-1.999 6.004-2.813 6.68-2.626 10.742-9.394 9.883-16.438-.159-1.34-.237-2.636-.237-3.962 0-15.22 10.306-28.398 25.062-32.05 7.1-1.757 12.058-8.132 12.058-15.58 0-26.572 21.622-48.19 48.2-48.19 26.571 0 48.189 21.618 48.189 48.27 0 7.369 4.958 13.743 12.059 15.501 16.179 4.005 26.834 19.49 24.826 35.993-.858 7.057 3.202 13.822 9.879 16.455 14.038 5.525 25.358 16.705 31.057 30.671 1.584 3.881 6.021 5.644 9.777 4.111 3.836-1.565 5.676-5.942 4.111-9.777-7.239-17.742-21.619-31.943-39.447-38.961-.3-.118-.519-.426-.484-.701 3.007-24.229-12.824-46.574-36.115-52.352-.378-.094-.662-.498-.662-1.02-.002-34.845-28.349-63.192-63.192-63.192-34.849 0-63.2 28.347-63.2 63.27 0 .442-.284.847-.66.94-21.467 5.311-36.46 24.478-36.46 46.61 0 1.898.115 3.828.346 5.758.155 1.298-4.62 2.377-5.664 3.003-1.867-5.525-3.796-10.958-5.786-16.242-32.161-85.41-64.406-103.339-85.793-103.339-37.323 0-65.866 52.589-83.239 96.706-1.518 3.854.376 8.209 4.23 9.727 3.852 1.519 8.209-.376 9.727-4.23 21.823-55.419 47.075-87.203 69.282-87.203 23.197 0 49.351 34.125 71.755 93.625 21.105 56.051 32.148 116.59 32.148 147.423 0 61.691-42.599 112.381-96.403 116.725v-60.865c0-.003 0-.007 0-.01v-28.677l31.301-31.301c2.929-2.93 2.929-7.678 0-10.607-2.93-2.928-7.678-2.928-10.607 0l-20.693 20.693v-31.361c0-4.143-3.357-7.5-7.5-7.5s-7.5 3.357-7.5 7.5v49.464.01 13.677l-20.694-20.694c-2.93-2.928-7.678-2.928-10.607 0-2.929 2.93-2.929 7.678 0 10.607l31.301 31.301v57.763c-53.805-4.344-96.404-55.034-96.404-116.725 0-28.982 9.321-77.824 23.195-121.537 1.253-3.947-.932-8.164-4.88-9.417-3.942-1.25-8.163.933-9.417 4.88-14.517 45.74-23.898 95.227-23.898 126.074 0 70.005 49.321 127.449 111.403 131.762v109.19h-103.903c-4.143 0-7.5 3.357-7.5 7.5s3.357 7.5 7.5 7.5h497c4.143 0 7.5-3.357 7.5-7.5s-3.357-7.5-7.5-7.5zm-195.884 0h-182.213v-109.19c53.923-3.746 98.212-47.58 108.923-104.909 3.851 3.53 8.177 6.458 12.966 8.753 19.993 9.571 39.218 3.859 46.565.956 5.333-2.117 9.879-4.818 13.759-7.725zm120.384 0h-105.384v-212.11c3.878 2.904 8.425 5.604 13.767 7.724 4.291 1.696 12.646 4.354 22.845 4.354.574 0 .772 8.902.772 13.433 0 43.709 29.877 79.758 68 83.981zm7.5-191.777c-4.143 0-7.5 3.357-7.5 7.5v41.227.01 25.287c-29.831-4.253-53-33.495-53-68.847 0-5.498.569-10.933 1.676-16.215 22.964-7.691 36.151-34.609 37.824-45.441 5.087-1.907 9.869-4.372 14.287-7.309 36.42-4.694 67.213 28.379 67.213 68.965 0 35.352-23.169 64.594-53 68.847v-22.185l23.714-23.714c2.929-2.93 2.929-7.678 0-10.607-2.93-2.928-7.678-2.928-10.607 0l-13.107 13.107v-23.125c0-4.143-3.357-7.5-7.5-7.5z"/></g></svg>