<?xml version="1.0" encoding="iso-8859-1"?>
<!-- Generator: Adobe Illustrator 19.0.0, SVG Export Plug-In . SVG Version: 6.00 Build 0)  -->
<svg version="1.1" id="Capa_1" xmlns="http://www.w3.org/2000/svg" xmlns:xlink="http://www.w3.org/1999/xlink" x="0px" y="0px"
	 viewBox="0 0 512 512" style="enable-background:new 0 0 512 512;" xml:space="preserve">
<path style="fill:#B4E66E;" d="M367.72,7.916c3.832,0.458,6.814,3.44,7.272,7.272c2.253,18.863-4.328,39.205-19.558,54.436
	s-35.573,21.811-54.436,19.558c-3.832-0.458-6.814-3.44-7.272-7.272c-2.253-18.863,4.328-39.205,19.558-54.436
	C328.515,12.244,348.858,5.663,367.72,7.916z"/>
<path style="fill:#A0D755;" d="M374.992,15.188c-0.229-1.916-1.089-3.62-2.371-4.901l-76.523,76.523
	c1.282,1.282,2.986,2.142,4.901,2.371c18.863,2.253,39.205-4.328,54.436-19.558C370.664,54.394,377.245,34.051,374.992,15.188z"/>
<path style="fill:#B4E66E;" d="M143.75,72.321c-3.304,0.474-5.992,3.162-6.466,6.466c-3.155,21.974,4.289,45.921,22.106,63.737
	s41.764,25.261,63.737,22.106c3.304-0.474,5.992-3.162,6.466-6.466c3.155-21.974-4.289-45.921-22.106-63.737
	S165.723,69.166,143.75,72.321z"/>
<path style="fill:#A0D755;" d="M227.421,162.458l-87.966-87.966c-1.144,1.144-1.935,2.642-2.172,4.294
	c-3.155,21.973,4.289,45.921,22.106,63.737c17.817,17.817,41.764,25.261,63.738,22.106
	C224.778,164.393,226.276,163.601,227.421,162.458z"/>
<path style="fill:#9B735A;" d="M184.677,360.205l7.175,129.151c0.472,8.496,7.498,15.143,16.007,15.143h113.961
	c8.509,0,15.536-6.647,16.007-15.143l7.175-129.151H184.677z"/>
<path style="fill:#FFDC64;" d="M331.618,238.099l-10.663-6.156l10.663-6.156c7.668-4.427,10.295-14.233,5.868-21.902
	c-4.427-7.668-14.232-10.296-21.902-5.868l-10.663,6.156v-12.312c0-8.855-7.178-16.032-16.032-16.032
	c-8.854,0-16.032,7.178-16.032,16.032v12.312l-10.663-6.156c-7.668-4.427-17.473-1.8-21.902,5.868
	c-4.427,7.668-1.8,17.474,5.868,21.902l10.663,6.156l-10.663,6.156c-7.668,4.427-10.295,14.232-5.868,21.902
	c4.427,7.668,14.233,10.295,21.902,5.868l10.663-6.156v12.312c0,8.854,7.178,16.033,16.032,16.033
	c8.854,0,16.032-7.178,16.032-16.033v-12.312l10.663,6.156c7.668,4.427,17.474,1.799,21.902-5.868
	C341.913,252.331,339.286,242.526,331.618,238.099z"/>
<path style="fill:#AE8B70;" d="M353.021,360.205h-176.36c-4.427,0-8.016-3.589-8.016-8.016v-16.032c0-4.427,3.589-8.016,8.016-8.016
	h176.36c4.427,0,8.016,3.589,8.016,8.016v16.032C361.037,356.615,357.448,360.205,353.021,360.205z"/>
<path style="fill:#8C5F50;" d="M233.264,384.254h110.849l0.891-24.049H184.677l7.175,129.152
	c0.472,8.496,7.499,15.143,16.007,15.143h24.025l-6.623-111.755C224.989,388.138,228.65,384.254,233.264,384.254z"/>
<g>
	<circle style="fill:#9B735A;" cx="288.891" cy="231.947" r="24.051"/>
	<path style="fill:#9B735A;" d="M176.661,328.14c-4.427,0-8.016,3.589-8.016,8.016v16.032c0,4.427,3.589,8.016,8.016,8.016h40.082
		V328.14H176.661z"/>
</g>
<path d="M353.021,320.639h-80.68v-31.904c4.254,4.214,10.102,6.822,16.548,6.822c12.754,0,23.172-10.199,23.524-22.871
	c11.15,6.03,25.191,2.108,31.569-8.937c6.376-11.045,2.751-25.167-8.045-31.807c10.796-6.641,14.421-20.762,8.044-31.808
	c-6.378-11.044-20.418-14.967-31.569-8.936c-0.352-12.67-10.769-22.871-23.524-22.871c-6.447,0-12.294,2.609-16.548,6.822v-23.878
	c0-19.409,7.558-37.656,21.283-51.381l3.672-3.672c3.593,0.581,7.221,0.877,10.854,0.877c19.116,0,38.314-7.896,52.588-22.17
	c18.041-18.041,25.893-43.945,20.495-67.606c-0.641-2.809-2.834-5.002-5.644-5.644c-23.662-5.4-49.566,2.454-67.606,20.494
	c-16.988,16.988-24.939,40.952-21.299,63.449l-3.666,3.666c-16.557,16.557-25.677,38.572-25.677,61.988v30.498l-20.634-20.634
	c4.312-25.493-4.635-52.735-23.917-72.014c-20.331-20.331-49.514-29.185-76.164-23.103c-2.809,0.641-5.002,2.834-5.644,5.644
	c-6.08,26.649,2.772,55.833,23.103,76.164c16.089,16.089,37.723,24.99,59.257,24.99c4.273,0,8.543-0.351,12.765-1.066l18.623,18.623
	c-4.573,1.996-8.391,5.36-10.932,9.761c-6.376,11.045-2.752,25.167,8.044,31.808c-10.796,6.64-14.42,20.762-8.044,31.808
	c4.91,8.503,14.363,12.779,23.543,11.546v45.341h-80.679c-8.556,0-15.516,6.96-15.516,15.516v16.032
	c0,8.556,6.96,15.516,15.516,15.516h0.921l6.781,122.067C185.053,502.237,195.374,512,207.857,512h113.961
	c12.483,0,22.805-9.763,23.497-22.228l6.782-122.067h0.921c8.556,0,15.516-6.96,15.516-15.516v-16.032
	C368.537,327.6,361.577,320.639,353.021,320.639z M318.589,32.778c13.201-13.201,31.542-19.608,48.876-17.334
	c2.275,17.333-4.132,35.675-17.334,48.876c-10.612,10.612-24.547,16.823-38.609,17.674l17.922-17.922
	c2.929-2.929,2.929-7.678,0-10.606c-2.929-2.929-7.678-2.929-10.606,0l-17.922,17.922C301.765,57.325,307.976,43.39,318.589,32.778z
	 M305.438,231.943c0,9.125-7.423,16.548-16.548,16.548s-16.548-7.423-16.548-16.548c0-9.125,7.423-16.548,16.548-16.548
	S305.438,222.818,305.438,231.943z M288.89,280.557c-4.705,0-8.532-3.828-8.532-8.532v-9.714c2.716,0.764,5.575,1.182,8.532,1.182
	s5.816-0.418,8.532-1.182v9.714C297.422,276.729,293.594,280.557,288.89,280.557z M330.992,256.25
	c-2.353,4.075-7.582,5.476-11.656,3.124l-8.427-4.865c4.085-3.987,7.099-9.067,8.553-14.766l8.406,4.853
	C331.942,246.947,333.343,252.176,330.992,256.25z M319.335,204.513c4.074-2.351,9.303-0.951,11.656,3.123
	c2.352,4.074,0.951,9.303-3.124,11.656l-8.406,4.853c-1.455-5.699-4.468-10.779-8.553-14.767L319.335,204.513z M288.89,183.328
	c4.705,0,8.532,3.828,8.532,8.532v9.714c-2.716-0.764-5.575-1.182-8.532-1.182s-5.816,0.418-8.532,1.182v-9.714
	C280.357,187.156,284.185,183.328,288.89,183.328z M164.692,137.221c-15.499-15.499-22.914-37.126-19.971-57.462
	c20.338-2.946,41.962,4.471,57.462,19.971c12.979,12.979,20.286,30.257,20.59,47.474l-31.077-31.077
	c-2.929-2.929-7.678-2.929-10.606,0c-2.929,2.929-2.929,7.678,0,10.606l31.078,31.078
	C194.95,157.509,177.673,150.201,164.692,137.221z M246.789,207.636c1.14-1.974,2.979-3.385,5.181-3.976
	c2.2-0.589,4.5-0.287,6.474,0.853l8.427,4.865c-4.085,3.987-7.099,9.067-8.553,14.766l-8.405-4.853
	C245.837,216.939,244.436,211.71,246.789,207.636z M246.789,256.251c-2.353-4.075-0.952-9.304,3.123-11.656l8.406-4.853
	c1.455,5.699,4.468,10.779,8.553,14.766l-8.427,4.865C254.37,261.727,249.141,260.325,246.789,256.251z M353.537,352.188
	c0,0.285-0.231,0.516-0.516,0.516h-24.05c-4.142,0-7.5,3.358-7.5,7.5s3.358,7.5,7.5,7.5h8.104L330.34,488.94
	c-0.251,4.519-3.993,8.059-8.519,8.059H207.859c-4.526,0-8.268-3.54-8.519-8.059l-6.735-121.235h104.298c4.142,0,7.5-3.358,7.5-7.5
	s-3.358-7.5-7.5-7.5H176.661c-0.285,0-0.516-0.231-0.516-0.516v-16.032c0-0.285,0.231-0.516,0.516-0.516h176.36
	c0.285,0,0.516,0.231,0.516,0.516V352.188z"/>
<g>
</g>
<g>
</g>
<g>
</g>
<g>
</g>
<g>
</g>
<g>
</g>
<g>
</g>
<g>
</g>
<g>
</g>
<g>
</g>
<g>
</g>
<g>
</g>
<g>
</g>
<g>
</g>
<g>
</g>
</svg>
