<svg id="svg" version="1.1" xmlns="http://www.w3.org/2000/svg" xmlns:xlink="http://www.w3.org/1999/xlink" width="400" height="362.043795620438" viewBox="0, 0, 400,362.043795620438"><g id="svgg"><path id="path0" d="M125.376 130.812 C 123.739 132.211,124.141 132.200,125.906 130.797 C 126.658 130.199,127.129 129.717,126.952 129.725 C 126.775 129.733,126.066 130.222,125.376 130.812 M127.042 132.458 C 126.471 132.960,126.063 133.430,126.136 133.503 C 126.209 133.576,126.801 133.160,127.452 132.579 C 128.102 131.997,128.510 131.527,128.357 131.533 C 128.205 131.539,127.613 131.955,127.042 132.458 M123.350 132.640 C 123.216 132.857,122.799 132.954,122.422 132.855 C 122.046 132.757,121.829 132.824,121.941 133.005 C 122.250 133.504,123.046 133.398,123.551 132.790 C 123.799 132.491,123.910 132.246,123.798 132.246 C 123.685 132.246,123.484 132.424,123.350 132.640 M246.379 190.810 C 246.378 191.036,246.620 191.689,246.918 192.259 C 247.216 192.830,247.460 193.112,247.462 192.886 C 247.463 192.659,247.220 192.007,246.923 191.436 C 246.625 190.866,246.380 190.584,246.379 190.810 M247.757 194.384 C 247.940 194.783,248.181 195.353,248.292 195.652 C 248.466 196.122,248.497 196.119,248.522 195.631 C 248.538 195.320,248.297 194.750,247.987 194.363 C 247.433 193.671,247.429 193.671,247.757 194.384 M248.551 197.413 C 248.551 198.416,248.923 199.275,249.358 199.275 C 249.572 199.275,249.539 199.049,249.279 198.736 C 249.033 198.440,248.925 197.956,249.038 197.661 C 249.151 197.366,249.088 197.028,248.897 196.911 C 248.707 196.793,248.551 197.019,248.551 197.413 M195.140 198.881 C 195.286 199.163,195.526 199.897,195.673 200.512 C 195.919 201.540,195.943 201.556,195.977 200.703 C 195.998 200.193,195.758 199.460,195.444 199.073 C 195.130 198.686,194.993 198.600,195.140 198.881 M216.508 206.859 C 215.901 207.530,215.906 207.550,216.633 207.360 C 217.050 207.251,217.391 206.936,217.391 206.661 C 217.391 205.998,217.261 206.027,216.508 206.859 M159.852 210.270 C 159.615 210.927,159.428 211.697,159.438 211.982 C 159.447 212.267,159.703 211.791,160.006 210.925 C 160.310 210.059,160.496 209.289,160.421 209.213 C 160.346 209.138,160.090 209.614,159.852 210.270 M213.578 210.422 C 213.373 210.569,212.643 211.422,211.954 212.319 C 211.266 213.216,210.991 213.720,211.343 213.441 C 211.984 212.932,214.298 210.140,214.070 210.150 C 214.004 210.154,213.782 210.276,213.578 210.422 M208.152 216.599 C 207.016 217.925,205.780 219.648,206.415 219.022 C 207.533 217.918,209.502 215.544,209.381 215.445 C 209.303 215.382,208.750 215.901,208.152 216.599 M162.074 226.688 C 162.205 226.819,162.113 227.186,161.869 227.503 C 161.597 227.856,161.739 227.812,162.235 227.389 C 163.203 226.563,163.228 226.449,162.440 226.449 C 162.107 226.449,161.943 226.557,162.074 226.688 M152.123 230.426 L 151.268 231.142 152.262 230.698 C 152.808 230.454,153.256 230.131,153.258 229.982 C 153.262 229.566,153.053 229.648,152.123 230.426 M229.279 230.254 C 229.462 230.652,229.703 231.223,229.814 231.522 C 229.988 231.991,230.019 231.988,230.044 231.500 C 230.060 231.190,229.819 230.619,229.509 230.232 C 228.955 229.540,228.951 229.541,229.279 230.254 M173.903 233.347 C 173.455 233.631,173.471 233.685,174.004 233.690 C 174.352 233.693,174.638 233.879,174.638 234.102 C 174.638 234.401,174.766 234.402,175.124 234.105 C 175.391 233.884,175.717 233.809,175.849 233.940 C 175.980 234.071,176.087 233.998,176.087 233.777 C 176.087 233.181,175.450 232.898,175.161 233.366 C 174.988 233.646,174.836 233.654,174.673 233.391 C 174.522 233.147,174.245 233.131,173.903 233.347 M230.859 234.058 C 230.877 234.999,231.448 236.546,231.460 235.688 C 231.466 235.290,231.331 234.638,231.159 234.239 C 230.969 233.795,230.852 233.725,230.859 234.058 M176.812 234.195 C 176.812 234.270,177.056 234.535,177.355 234.783 C 177.800 235.152,177.899 235.127,177.899 234.646 C 177.899 234.323,177.654 234.058,177.355 234.058 C 177.056 234.058,176.812 234.120,176.812 234.195 M178.986 235.481 C 178.986 235.665,178.700 235.884,178.351 235.967 C 178.003 236.050,179.129 236.184,180.854 236.266 C 182.580 236.347,183.915 236.291,183.822 236.141 C 183.729 235.992,182.766 235.870,181.682 235.870 C 180.597 235.870,179.710 235.707,179.710 235.507 C 179.710 235.308,179.547 235.145,179.348 235.145 C 179.149 235.145,178.986 235.296,178.986 235.481 M179.111 249.472 C 178.993 249.780,178.998 250.133,179.122 250.257 C 179.246 250.381,179.348 250.211,179.348 249.879 C 179.348 249.169,179.753 249.101,180.362 249.710 C 180.653 250.001,180.797 250.014,180.797 249.749 C 180.797 249.531,180.539 249.254,180.224 249.133 C 179.419 248.824,179.351 248.844,179.111 249.472 M178.320 251.646 C 177.713 252.978,177.828 253.263,178.485 252.051 C 178.791 251.486,178.974 250.955,178.892 250.872 C 178.809 250.789,178.551 251.138,178.320 251.646 M227.899 252.072 C 227.899 252.304,228.062 252.594,228.261 252.717 C 228.460 252.841,228.642 253.299,228.665 253.735 C 228.697 254.338,228.747 254.378,228.872 253.902 C 228.962 253.557,228.780 252.909,228.467 252.462 C 228.154 252.016,227.899 251.840,227.899 252.072 M200.254 254.106 C 200.153 254.372,200.298 254.589,200.578 254.589 C 200.858 254.589,201.087 254.372,201.087 254.106 C 201.087 253.841,200.941 253.623,200.763 253.623 C 200.585 253.623,200.356 253.841,200.254 254.106 M176.121 257.184 C 175.780 257.821,174.013 257.839,129.006 257.678 L 82.246 257.511 82.246 259.511 L 82.246 261.511 200.543 261.536 L 318.841 261.562 318.841 259.585 L 318.841 257.609 278.895 257.598 C 256.925 257.593,235.525 257.609,231.341 257.634 C 187.810 257.896,176.410 257.796,176.578 257.156 C 176.793 256.332,176.569 256.345,176.121 257.184 M178.569 267.391 C 178.361 267.988,178.056 268.395,177.892 268.293 C 177.729 268.192,177.349 268.355,177.048 268.656 C 176.747 268.957,175.919 269.203,175.207 269.203 C 174.298 269.203,173.913 269.365,173.913 269.746 C 173.913 270.045,173.607 270.290,173.233 270.290 C 172.859 270.290,172.350 270.534,172.101 270.833 C 171.853 271.132,171.416 271.377,171.130 271.377 C 170.844 271.377,170.710 271.540,170.833 271.739 C 170.956 271.938,170.803 272.101,170.492 272.101 C 170.182 272.101,169.928 272.346,169.928 272.645 C 169.928 272.955,169.602 273.188,169.170 273.188 C 168.304 273.188,167.059 274.513,167.041 275.453 C 167.034 275.802,166.784 276.087,166.486 276.087 C 166.187 276.087,165.942 276.258,165.942 276.467 C 165.942 276.675,165.534 277.224,165.036 277.686 C 164.538 278.147,164.130 278.873,164.130 279.299 C 164.130 279.745,163.900 280.072,163.587 280.072 C 163.249 280.072,163.043 280.415,163.043 280.978 C 163.043 281.542,162.838 281.884,162.500 281.884 C 162.138 281.884,161.957 282.246,161.957 282.971 C 161.957 283.569,161.793 284.058,161.594 284.058 C 161.395 284.058,161.232 284.710,161.232 285.507 C 161.232 286.554,161.081 286.957,160.688 286.957 C 160.251 286.957,160.145 287.516,160.145 289.816 C 160.145 292.024,160.021 292.724,159.601 292.885 C 159.177 293.048,159.058 293.772,159.058 296.196 C 159.058 298.619,159.177 299.344,159.601 299.507 C 159.982 299.653,160.145 300.246,160.145 301.488 C 160.145 302.822,160.279 303.261,160.688 303.261 C 161.081 303.261,161.232 303.663,161.232 304.710 C 161.232 305.507,161.384 306.159,161.570 306.159 C 161.756 306.159,161.960 306.608,162.023 307.156 C 162.088 307.716,162.336 308.113,162.591 308.062 C 162.872 308.005,163.043 308.382,163.043 309.058 C 163.043 309.783,163.225 310.145,163.587 310.145 C 163.886 310.145,164.130 310.389,164.130 310.688 C 164.130 310.987,164.293 311.232,164.493 311.232 C 164.692 311.232,164.855 311.563,164.855 311.968 C 164.855 312.373,165.100 312.798,165.399 312.912 C 165.697 313.027,165.942 313.348,165.942 313.626 C 165.942 313.903,166.168 314.130,166.444 314.130 C 166.720 314.130,167.200 314.660,167.510 315.308 C 167.819 315.956,168.735 317.193,169.545 318.057 C 170.355 318.922,170.951 319.737,170.870 319.869 C 170.788 320.001,171.136 320.134,171.642 320.164 C 172.639 320.224,173.433 321.029,176.787 325.385 C 181.156 331.059,181.151 332.400,176.746 336.531 C 175.540 337.662,173.990 339.117,173.301 339.764 C 171.944 341.042,171.329 341.201,170.587 340.469 C 170.324 340.209,169.813 339.884,169.451 339.747 C 169.090 339.610,169.375 340.046,170.086 340.716 C 171.109 341.681,171.377 342.209,171.377 343.261 C 171.377 345.036,168.296 344.879,205.525 345.001 L 238.768 345.109 238.768 343.750 C 238.768 342.784,238.925 342.391,239.312 342.391 C 239.611 342.391,239.855 342.147,239.855 341.848 C 239.855 341.549,240.033 341.304,240.250 341.304 C 241.882 341.304,242.939 332.832,241.447 331.709 C 241.177 331.506,240.918 330.792,240.869 330.121 C 240.821 329.450,240.573 328.821,240.318 328.723 C 240.064 328.626,239.855 328.155,239.855 327.679 C 239.855 327.149,239.643 326.812,239.312 326.812 C 238.919 326.812,238.768 326.409,238.768 325.362 C 238.768 324.565,238.605 323.913,238.406 323.913 C 238.207 323.913,238.043 323.424,238.043 322.826 C 238.043 322.228,238.207 321.739,238.406 321.739 C 238.605 321.739,238.768 321.349,238.768 320.872 C 238.768 320.395,239.013 319.911,239.312 319.797 C 239.611 319.682,239.855 319.257,239.855 318.852 C 239.855 318.439,240.094 318.116,240.399 318.116 C 240.697 318.116,240.942 317.953,240.942 317.754 C 240.942 317.554,241.594 316.739,242.391 315.942 C 243.188 315.145,243.841 314.167,243.841 313.768 C 243.841 313.370,244.026 313.043,244.254 313.043 C 244.863 313.043,245.627 311.895,245.641 310.960 C 245.647 310.482,245.877 310.145,246.196 310.145 C 246.495 310.145,246.739 309.900,246.739 309.601 C 246.739 309.303,246.899 309.058,247.095 309.058 C 247.290 309.058,247.552 308.650,247.677 308.152 C 247.802 307.654,248.050 307.246,248.228 307.246 C 248.405 307.246,248.551 306.594,248.551 305.797 C 248.551 304.750,248.702 304.348,249.094 304.348 C 249.487 304.348,249.638 303.945,249.638 302.899 C 249.638 301.852,249.789 301.449,250.181 301.449 C 250.642 301.449,250.725 300.564,250.725 295.652 C 250.725 290.741,250.642 289.855,250.181 289.855 C 249.764 289.855,249.638 289.392,249.638 287.862 C 249.638 286.333,249.511 285.870,249.094 285.870 C 248.702 285.870,248.551 285.467,248.551 284.420 C 248.551 283.623,248.388 282.971,248.188 282.971 C 247.989 282.971,247.826 282.563,247.826 282.065 C 247.826 281.502,247.621 281.159,247.283 281.159 C 246.920 281.159,246.739 280.797,246.739 280.072 C 246.739 279.388,246.553 278.986,246.237 278.986 C 245.961 278.986,245.447 278.380,245.096 277.640 C 244.430 276.235,240.652 272.216,240.147 272.373 C 239.986 272.423,239.855 272.219,239.855 271.920 C 239.855 271.589,239.517 271.377,238.988 271.377 C 238.511 271.377,238.027 271.132,237.912 270.833 C 237.798 270.534,237.309 270.290,236.825 270.290 C 236.342 270.290,235.853 270.045,235.739 269.746 C 235.624 269.447,235.199 269.203,234.794 269.203 C 234.389 269.203,234.058 269.040,234.058 268.841 C 234.058 268.641,233.650 268.478,233.152 268.478 C 232.438 268.478,232.246 268.295,232.246 267.611 C 232.246 266.358,231.883 266.304,223.384 266.304 C 216.968 266.304,215.592 266.396,215.217 266.848 C 214.969 267.147,214.480 267.391,214.130 267.391 C 213.781 267.391,213.292 267.147,213.043 266.848 C 212.184 265.812,207.738 266.100,207.460 267.210 C 207.335 267.708,207.069 268.116,206.868 268.116 C 206.668 268.116,206.349 267.708,206.159 267.210 L 205.815 266.304 198.604 266.304 C 191.533 266.304,191.382 266.320,190.832 267.120 L 190.271 267.935 189.680 267.120 C 189.116 266.341,188.860 266.304,184.019 266.304 L 178.948 266.304 178.569 267.391 M170.990 325.091 C 170.672 326.242,170.781 327.102,171.223 326.932 C 171.803 326.709,171.940 325.000,171.377 325.000 C 171.178 325.000,171.003 325.041,170.990 325.091 M169.928 328.442 C 169.928 328.741,170.172 328.986,170.471 328.986 C 170.770 328.986,171.014 328.741,171.014 328.442 C 171.014 328.143,170.770 327.899,170.471 327.899 C 170.172 327.899,169.928 328.143,169.928 328.442 M168.986 330.655 C 168.986 331.132,169.197 331.522,169.457 331.522 C 169.716 331.522,169.928 331.213,169.928 330.836 C 169.928 330.459,169.716 330.069,169.457 329.969 C 169.151 329.852,168.986 330.093,168.986 330.655 M167.754 333.865 C 167.754 334.794,167.886 335.071,168.261 334.927 C 169.249 334.548,169.253 332.609,168.267 332.609 C 167.923 332.609,167.754 333.023,167.754 333.865 " stroke="none" fill="#c7b74b" fill-rule="evenodd"></path><path id="path1" d="M123.370 120.652 C 123.246 120.851,122.707 121.015,122.171 121.017 C 121.634 121.018,120.729 121.263,120.158 121.560 C 119.587 121.858,118.980 122.101,118.809 122.101 C 118.301 122.101,115.217 125.338,115.217 125.871 C 115.217 126.140,114.973 126.564,114.674 126.812 C 114.364 127.068,114.130 127.858,114.130 128.646 C 114.130 129.407,113.967 130.130,113.768 130.254 C 113.569 130.377,113.406 130.947,113.406 131.522 C 113.406 132.096,113.569 132.667,113.768 132.790 C 113.967 132.913,114.130 133.636,114.130 134.397 C 114.130 135.185,114.364 135.975,114.674 136.232 C 114.973 136.480,115.217 136.903,115.217 137.173 C 115.217 137.705,118.301 140.942,118.809 140.942 C 118.980 140.942,119.587 141.186,120.158 141.483 C 120.729 141.781,121.634 142.026,122.171 142.027 C 122.707 142.028,123.246 142.192,123.370 142.391 C 123.653 142.849,125.175 142.861,126.001 142.411 C 126.347 142.223,127.242 141.971,127.989 141.851 C 128.736 141.732,129.348 141.478,129.348 141.288 C 129.348 141.098,129.633 140.939,129.982 140.936 C 130.331 140.932,131.000 140.525,131.469 140.030 C 131.938 139.535,132.468 139.130,132.647 139.130 C 132.825 139.130,132.971 138.886,132.971 138.587 C 132.971 138.288,133.216 138.043,133.514 138.043 C 133.813 138.043,134.058 137.818,134.058 137.541 C 134.058 137.265,134.302 136.572,134.599 136.002 C 134.897 135.431,135.141 134.525,135.143 133.989 C 135.144 133.453,135.308 132.913,135.507 132.790 C 135.707 132.667,135.870 132.086,135.870 131.500 C 135.870 130.914,135.707 130.435,135.507 130.435 C 135.308 130.435,135.144 129.905,135.143 129.257 C 135.141 128.610,134.897 127.613,134.599 127.042 C 134.302 126.471,134.058 125.778,134.058 125.502 C 134.058 125.226,133.813 125.000,133.514 125.000 C 133.216 125.000,132.971 124.755,132.971 124.457 C 132.971 124.158,132.825 123.913,132.647 123.913 C 132.468 123.913,131.938 123.508,131.469 123.014 C 131.000 122.519,130.344 122.111,130.012 122.108 C 129.680 122.104,129.349 121.922,129.276 121.703 C 129.203 121.485,128.374 121.219,127.434 121.113 C 126.494 121.007,125.725 120.778,125.725 120.605 C 125.725 120.166,123.644 120.208,123.370 120.652 M131.760 127.736 C 132.054 128.500,125.428 134.783,124.329 134.783 C 124.100 134.783,123.913 135.027,123.913 135.326 C 123.913 136.246,121.938 135.974,120.628 134.873 C 117.947 132.619,117.723 132.267,118.354 131.304 C 119.088 130.184,119.166 130.197,120.858 131.703 C 122.537 133.197,122.813 133.236,123.954 132.143 C 124.430 131.688,125.716 130.590,126.812 129.703 C 127.908 128.816,128.935 127.884,129.094 127.632 C 129.509 126.976,131.498 127.054,131.760 127.736 M110.507 167.572 C 110.507 167.911,110.165 168.116,109.601 168.116 C 109.103 168.116,108.696 168.279,108.696 168.478 C 108.696 168.678,108.451 168.841,108.152 168.841 C 107.853 168.841,107.609 169.085,107.609 169.384 C 107.609 169.683,107.364 169.928,107.065 169.928 C 106.766 169.928,106.522 170.098,106.522 170.307 C 106.522 170.516,106.114 171.065,105.616 171.526 L 104.710 172.366 104.710 194.516 L 104.710 216.667 106.159 216.667 L 107.609 216.667 107.609 197.132 C 107.609 183.264,107.724 177.558,108.007 177.464 C 108.226 177.391,108.491 176.562,108.597 175.622 C 108.703 174.682,108.932 173.913,109.105 173.913 C 109.278 173.913,109.420 173.668,109.420 173.370 C 109.420 173.071,109.665 172.826,109.964 172.826 C 110.263 172.826,110.507 172.582,110.507 172.283 C 110.507 171.984,110.752 171.739,111.051 171.739 C 111.350 171.739,111.594 171.576,111.594 171.377 C 111.594 171.178,112.333 171.014,113.236 171.014 C 114.361 171.014,114.943 170.843,115.086 170.471 C 115.268 169.997,117.839 169.928,135.184 169.928 L 155.072 169.928 155.072 168.478 L 155.072 167.029 132.790 167.029 C 113.225 167.029,110.507 167.095,110.507 167.572 M251.449 168.478 L 251.449 169.928 270.432 169.928 C 286.972 169.928,289.442 169.997,289.624 170.471 C 289.771 170.854,290.369 171.014,291.655 171.014 C 292.658 171.014,293.478 171.178,293.478 171.377 C 293.478 171.576,293.723 171.739,294.022 171.739 C 294.321 171.739,294.565 171.984,294.565 172.283 C 294.565 172.582,294.711 172.826,294.888 172.826 C 295.066 172.826,295.314 173.234,295.439 173.732 C 295.564 174.230,295.826 174.638,296.021 174.638 C 296.217 174.638,296.377 175.272,296.377 176.048 C 296.377 176.968,296.566 177.531,296.920 177.667 C 297.394 177.849,297.464 180.365,297.464 197.271 L 297.464 216.667 298.913 216.667 L 300.362 216.667 300.362 194.746 C 300.362 175.503,300.296 172.826,299.819 172.826 C 299.481 172.826,299.275 172.484,299.275 171.920 C 299.275 171.357,299.070 171.014,298.732 171.014 C 298.433 171.014,298.188 170.839,298.188 170.624 C 298.188 169.958,296.108 168.116,295.356 168.116 C 294.964 168.116,294.549 167.871,294.434 167.572 C 294.252 167.098,291.515 167.029,272.837 167.029 L 251.449 167.029 251.449 168.478 M241.073 182.065 C 240.958 182.364,240.637 182.609,240.360 182.609 C 240.082 182.609,239.855 182.853,239.855 183.152 C 239.855 183.490,239.513 183.696,238.949 183.696 C 238.370 183.696,238.043 183.900,238.043 184.261 C 238.043 184.571,237.879 184.724,237.679 184.600 C 237.478 184.476,237.216 184.629,237.096 184.941 C 236.977 185.252,236.652 185.507,236.374 185.507 C 236.097 185.507,235.870 185.685,235.870 185.902 C 235.870 186.119,235.533 186.569,235.122 186.902 C 234.671 187.267,234.293 188.117,234.169 189.044 C 234.040 190.001,233.776 190.580,233.467 190.580 C 233.143 190.580,232.971 191.013,232.971 191.826 C 232.971 192.512,232.808 193.174,232.609 193.297 C 232.409 193.420,232.246 193.919,232.246 194.405 C 232.246 194.950,232.038 195.290,231.703 195.290 C 231.310 195.290,231.159 195.692,231.159 196.739 C 231.159 197.786,231.008 198.188,230.616 198.188 C 230.281 198.188,230.072 198.528,230.072 199.073 C 230.072 199.559,229.909 200.058,229.710 200.181 C 229.511 200.304,229.348 201.048,229.348 201.833 C 229.348 202.861,229.196 203.261,228.804 203.261 C 228.445 203.261,228.261 203.620,228.261 204.322 C 228.261 204.906,228.016 205.628,227.717 205.927 C 227.418 206.225,227.174 206.808,227.174 207.220 C 227.174 207.633,227.011 207.971,226.812 207.971 C 226.612 207.971,226.449 208.443,226.449 209.019 C 226.449 209.617,226.216 210.157,225.906 210.276 C 225.594 210.396,225.362 210.936,225.362 211.544 C 225.362 212.152,225.130 212.693,224.819 212.812 C 224.520 212.927,224.275 213.433,224.275 213.938 C 224.275 214.442,224.114 214.855,223.917 214.855 C 223.720 214.855,223.455 215.507,223.328 216.304 C 223.200 217.101,222.954 217.754,222.780 217.754 C 222.606 217.754,222.464 218.144,222.464 218.621 C 222.464 219.098,222.219 219.582,221.920 219.696 C 221.512 219.853,221.377 219.635,221.377 218.818 C 221.377 218.186,221.149 217.644,220.833 217.522 C 220.453 217.376,220.290 216.783,220.290 215.541 C 220.290 214.566,220.127 213.768,219.928 213.768 C 219.728 213.768,219.565 212.948,219.565 211.945 C 219.565 210.659,219.405 210.061,219.022 209.914 C 218.641 209.768,218.478 209.174,218.478 207.932 C 218.478 206.598,218.344 206.159,217.935 206.159 C 217.636 206.159,217.391 206.404,217.391 206.703 C 217.391 207.002,217.184 207.246,216.930 207.246 C 216.676 207.246,215.605 208.335,214.551 209.665 C 213.496 210.995,211.486 213.350,210.083 214.899 C 205.881 219.537,204.016 222.464,205.263 222.464 C 205.557 222.464,205.797 222.708,205.797 223.007 C 205.797 223.306,206.042 223.551,206.341 223.551 C 206.639 223.551,206.884 223.795,206.884 224.094 C 206.884 224.393,207.059 224.638,207.272 224.638 C 207.774 224.638,208.696 225.559,208.696 226.061 C 208.696 226.275,208.940 226.449,209.239 226.449 C 209.538 226.449,209.783 226.694,209.783 226.993 C 209.783 227.292,210.027 227.536,210.326 227.536 C 210.625 227.536,210.870 227.709,210.870 227.920 C 210.870 228.131,211.021 228.210,211.206 228.096 C 211.391 227.982,211.646 228.216,211.774 228.618 C 211.922 229.086,212.321 229.348,212.887 229.348 C 213.429 229.348,213.768 229.557,213.768 229.891 C 213.768 230.229,214.110 230.435,214.674 230.435 C 215.211 230.435,215.580 230.642,215.580 230.944 C 215.580 231.276,215.833 231.388,216.304 231.264 C 217.292 231.006,217.224 231.467,216.214 231.873 C 215.589 232.124,215.547 232.206,216.033 232.223 C 216.862 232.253,216.951 234.420,216.123 234.420 C 215.815 234.420,215.580 234.745,215.580 235.171 C 215.580 235.584,215.335 236.166,215.036 236.465 C 214.737 236.764,214.493 237.486,214.493 238.069 C 214.493 238.653,214.330 239.130,214.130 239.130 C 213.931 239.130,213.768 239.521,213.768 239.997 C 213.768 240.474,213.524 240.958,213.225 241.073 C 212.385 241.395,212.413 257.428,213.254 257.751 C 215.076 258.450,226.344 257.760,226.178 256.959 C 226.123 256.695,226.517 256.522,227.174 256.522 C 227.772 256.522,228.261 256.359,228.261 256.159 C 228.261 255.960,228.709 255.778,229.257 255.755 C 229.824 255.731,229.990 255.644,229.644 255.552 C 229.308 255.463,228.920 254.876,228.782 254.247 C 228.644 253.618,228.400 252.854,228.240 252.548 C 227.558 251.249,225.670 246.250,225.622 245.617 C 225.558 244.761,223.639 244.639,223.319 245.471 C 223.205 245.770,222.843 246.017,222.516 246.020 C 221.813 246.027,219.565 247.922,219.565 248.508 C 219.565 248.731,219.338 248.913,219.061 248.913 C 218.783 248.913,218.462 249.158,218.347 249.457 C 218.233 249.755,217.807 250.000,217.403 250.000 C 216.998 250.000,216.667 250.163,216.667 250.362 C 216.667 250.562,216.417 250.725,216.113 250.725 C 215.638 250.725,215.573 250.034,215.660 245.924 L 215.761 241.123 219.475 241.020 C 221.548 240.962,223.188 240.762,223.188 240.567 C 223.188 240.375,223.601 240.217,224.106 240.217 C 224.610 240.217,225.117 239.973,225.231 239.674 C 225.346 239.375,225.830 239.130,226.307 239.130 C 226.836 239.130,227.174 238.919,227.174 238.587 C 227.174 238.222,227.539 238.043,228.282 238.043 C 228.929 238.043,229.297 237.893,229.167 237.681 C 228.961 237.348,230.172 237.147,231.522 237.291 C 231.876 237.329,231.927 237.249,231.667 237.062 C 231.448 236.904,231.166 236.123,231.040 235.326 C 230.820 233.935,228.855 228.841,228.241 228.071 C 228.078 227.866,227.881 227.214,227.803 226.621 C 227.636 225.358,225.868 224.835,225.285 225.876 C 225.108 226.191,224.663 226.449,224.296 226.449 C 223.929 226.449,223.534 226.694,223.420 226.993 C 223.305 227.292,222.847 227.536,222.403 227.536 C 221.774 227.536,221.691 227.440,222.029 227.101 C 222.268 226.862,222.464 226.210,222.464 225.652 C 222.464 225.094,222.627 224.638,222.826 224.638 C 223.025 224.638,223.188 224.149,223.188 223.551 C 223.188 222.826,223.370 222.464,223.732 222.464 C 224.112 222.464,224.275 222.080,224.275 221.184 C 224.275 220.381,224.478 219.827,224.819 219.696 C 225.118 219.582,225.362 219.167,225.362 218.776 C 225.362 218.384,225.607 217.820,225.906 217.521 C 226.205 217.222,226.449 216.591,226.449 216.119 C 226.449 215.646,226.612 215.159,226.812 215.036 C 227.011 214.913,227.174 214.333,227.174 213.747 C 227.174 213.041,227.357 212.681,227.717 212.681 C 228.056 212.681,228.261 212.339,228.261 211.775 C 228.261 211.277,228.422 210.870,228.619 210.870 C 228.816 210.870,229.081 210.217,229.209 209.420 C 229.336 208.623,229.583 207.971,229.756 207.971 C 229.930 207.971,230.072 207.482,230.072 206.884 C 230.072 206.159,230.254 205.797,230.616 205.797 C 230.954 205.797,231.159 205.455,231.159 204.891 L 231.159 203.986 236.362 203.986 C 241.489 203.986,241.575 203.972,242.245 203.080 C 242.620 202.582,243.213 202.174,243.564 202.174 C 244.251 202.174,245.652 200.958,245.652 200.362 C 245.652 200.163,246.060 200.000,246.558 200.000 C 247.056 200.000,247.464 199.856,247.464 199.680 C 247.464 199.504,247.769 199.280,248.142 199.183 C 248.739 199.026,248.785 198.796,248.532 197.238 C 248.279 195.678,247.981 194.767,246.768 191.848 C 245.927 189.822,245.536 188.797,244.859 186.842 C 244.453 185.667,243.895 184.274,243.620 183.747 C 243.345 183.221,243.119 182.505,243.118 182.156 C 243.115 181.354,241.376 181.277,241.073 182.065 M189.493 190.036 C 189.493 190.335,189.262 190.580,188.979 190.580 C 188.697 190.580,188.412 190.728,188.345 190.909 C 188.279 191.090,187.906 191.294,187.516 191.362 C 186.721 191.500,185.507 192.561,185.507 193.116 C 185.507 193.315,185.263 193.478,184.964 193.478 C 184.665 193.478,184.420 193.603,184.420 193.755 C 184.420 194.031,183.347 194.686,182.156 195.135 C 181.807 195.267,181.522 195.600,181.522 195.876 C 181.522 196.151,181.347 196.377,181.134 196.377 C 180.650 196.377,179.710 197.291,179.710 197.761 C 179.710 197.954,179.466 198.205,179.167 198.319 C 178.740 198.483,178.623 199.221,178.623 201.761 C 178.623 204.310,178.507 205.039,178.076 205.205 C 177.776 205.320,177.550 205.541,177.576 205.696 C 177.601 205.851,177.603 207.079,177.579 208.424 L 177.536 210.870 176.087 210.870 C 175.040 210.870,174.638 210.719,174.638 210.326 C 174.638 209.934,174.235 209.783,173.188 209.783 C 172.391 209.783,171.739 209.620,171.739 209.420 C 171.739 209.221,171.107 209.058,170.334 209.058 C 169.527 209.058,168.737 208.827,168.478 208.514 C 168.203 208.183,167.409 207.971,166.441 207.971 C 165.273 207.971,164.855 207.828,164.855 207.428 C 164.855 207.007,164.382 206.884,162.772 206.885 L 160.688 206.886 160.596 208.182 C 160.545 208.895,160.250 210.321,159.940 211.351 C 159.630 212.382,159.204 213.877,158.992 214.674 C 158.780 215.471,158.367 216.904,158.074 217.858 C 157.190 220.737,156.967 220.652,165.387 220.652 C 171.758 220.652,172.826 220.574,172.826 220.109 C 172.826 219.810,172.950 219.565,173.102 219.565 C 173.379 219.565,174.034 218.492,174.483 217.301 C 174.615 216.952,174.948 216.667,175.223 216.667 C 175.499 216.667,175.725 216.422,175.725 216.123 C 175.725 215.824,175.956 215.580,176.238 215.580 C 176.520 215.580,176.816 215.385,176.896 215.146 C 177.068 214.630,180.552 214.713,180.737 215.237 C 180.803 215.425,181.659 215.580,182.639 215.580 C 183.981 215.580,184.420 215.714,184.420 216.123 C 184.420 216.513,184.819 216.667,185.831 216.667 C 186.750 216.667,187.314 216.856,187.450 217.210 C 187.702 217.867,189.366 217.937,189.596 217.301 C 189.849 216.598,188.687 214.855,187.965 214.855 C 187.610 214.855,187.319 214.611,187.319 214.312 C 187.319 214.013,187.074 213.768,186.775 213.768 C 186.437 213.768,186.232 213.426,186.232 212.862 C 186.232 212.299,186.437 211.957,186.775 211.957 C 187.074 211.957,187.319 211.790,187.319 211.587 C 187.319 211.384,187.726 210.572,188.225 209.783 C 188.723 208.993,189.130 208.018,189.130 207.616 C 189.130 207.207,189.370 206.884,189.674 206.884 C 190.012 206.884,190.217 206.542,190.217 205.978 C 190.217 205.277,190.404 205.072,191.043 205.072 C 191.851 205.072,193.116 203.965,193.116 203.257 C 193.116 203.060,193.423 202.899,193.799 202.899 C 194.786 202.899,196.510 201.937,196.041 201.647 C 195.827 201.515,195.652 201.101,195.652 200.727 C 195.652 200.147,195.162 198.811,193.459 194.746 C 193.292 194.348,192.821 193.256,192.411 192.321 C 192.002 191.385,191.667 190.366,191.667 190.056 C 191.667 189.672,191.321 189.493,190.580 189.493 C 189.855 189.493,189.493 189.674,189.493 190.036 M252.536 201.616 C 252.536 201.923,252.781 202.174,253.080 202.174 C 253.379 202.174,253.623 202.364,253.623 202.597 C 253.623 202.829,253.734 202.909,253.869 202.774 C 254.004 202.639,253.759 202.198,253.325 201.794 C 252.692 201.204,252.536 201.169,252.536 201.616 M200.121 203.477 C 200.121 203.756,200.338 203.986,200.604 203.986 C 200.870 203.986,201.087 203.840,201.087 203.662 C 201.087 203.484,200.870 203.255,200.604 203.153 C 200.338 203.051,200.121 203.197,200.121 203.477 M193.116 207.428 C 193.116 207.726,192.926 207.971,192.693 207.971 C 192.461 207.971,192.381 208.081,192.516 208.216 C 192.651 208.351,193.092 208.107,193.496 207.673 C 194.086 207.040,194.121 206.884,193.674 206.884 C 193.367 206.884,193.116 207.129,193.116 207.428 M176.333 226.399 C 176.218 226.969,175.696 228.342,175.171 229.450 C 174.092 231.729,174.085 233.151,175.151 233.154 C 175.534 233.155,175.914 233.358,175.997 233.607 C 176.080 233.855,176.541 234.058,177.023 234.058 C 177.560 234.058,177.899 234.268,177.899 234.601 C 177.899 234.940,178.241 235.145,178.804 235.145 C 179.303 235.145,179.710 235.308,179.710 235.507 C 179.710 235.707,180.597 235.870,181.682 235.870 C 182.766 235.870,183.754 236.033,183.877 236.232 C 184.776 237.687,186.232 236.567,186.232 234.420 C 186.232 233.213,186.071 232.246,185.870 232.246 C 185.670 232.246,185.507 231.594,185.507 230.797 C 185.507 229.750,185.356 229.348,184.964 229.348 C 184.665 229.348,184.420 229.202,184.420 229.025 C 184.420 228.847,184.013 228.599,183.514 228.474 C 183.016 228.349,182.609 228.087,182.609 227.892 C 182.609 227.696,182.120 227.536,181.522 227.536 C 180.797 227.536,180.435 227.355,180.435 226.993 C 180.435 226.694,180.260 226.449,180.047 226.449 C 179.833 226.449,179.414 226.205,179.115 225.906 C 178.140 224.931,176.571 225.209,176.333 226.399 M196.243 226.902 C 195.839 228.411,195.994 230.087,196.558 230.304 C 196.912 230.440,197.101 231.003,197.101 231.923 C 197.101 232.935,197.255 233.333,197.645 233.333 C 198.037 233.333,198.188 233.736,198.188 234.783 C 198.188 235.580,198.351 236.232,198.551 236.232 C 198.750 236.232,198.913 236.808,198.913 237.511 C 198.913 238.314,199.115 238.869,199.457 238.999 C 200.072 239.236,200.208 240.942,199.612 240.942 C 199.110 240.942,198.188 240.020,198.188 239.519 C 198.188 239.305,197.944 239.130,197.645 239.130 C 197.346 239.130,197.101 238.886,197.101 238.587 C 197.101 238.288,196.927 238.043,196.713 238.043 C 196.212 238.043,195.290 237.122,195.290 236.620 C 195.290 235.330,193.870 236.352,193.689 237.772 C 193.243 241.280,193.281 247.826,193.747 247.826 C 193.998 247.826,194.203 248.239,194.203 248.743 C 194.203 249.248,194.447 249.754,194.746 249.869 C 195.045 249.984,195.290 250.386,195.290 250.763 C 195.290 251.141,195.453 251.449,195.652 251.449 C 195.851 251.449,196.014 251.658,196.014 251.912 C 196.014 252.873,197.445 253.623,199.280 253.623 C 200.645 253.623,201.087 253.756,201.087 254.167 C 201.087 254.505,201.429 254.710,201.993 254.710 C 202.539 254.710,202.899 254.917,202.899 255.231 C 202.899 255.553,203.346 255.794,204.074 255.865 C 204.946 255.949,205.374 256.241,205.734 256.995 C 206.564 258.736,207.409 258.129,207.536 255.703 C 207.603 254.423,207.499 253.623,207.264 253.623 C 207.055 253.623,206.884 252.971,206.884 252.174 C 206.884 251.127,206.733 250.725,206.341 250.725 C 205.948 250.725,205.797 250.322,205.797 249.275 C 205.797 248.229,205.646 247.826,205.254 247.826 C 204.861 247.826,204.710 247.424,204.710 246.377 C 204.710 245.580,204.547 244.928,204.348 244.928 C 204.149 244.928,203.986 244.352,203.986 243.648 C 203.986 242.845,203.783 242.291,203.442 242.160 C 203.088 242.024,202.899 241.460,202.899 240.541 C 202.899 239.529,202.745 239.130,202.355 239.130 C 201.963 239.130,201.812 238.728,201.812 237.681 C 201.812 236.884,201.649 236.232,201.449 236.232 C 201.250 236.232,201.087 235.656,201.087 234.952 C 201.087 234.149,200.885 233.595,200.543 233.464 C 200.189 233.328,200.000 232.765,200.000 231.845 C 200.000 230.833,199.847 230.435,199.457 230.435 C 199.064 230.435,198.913 230.032,198.913 228.986 C 198.913 228.188,198.769 227.536,198.593 227.536 C 198.417 227.536,198.188 227.210,198.083 226.812 C 197.821 225.806,196.519 225.870,196.243 226.902 M173.435 234.198 C 173.300 234.551,173.451 234.646,173.940 234.518 C 174.742 234.308,174.886 233.696,174.133 233.696 C 173.855 233.696,173.541 233.922,173.435 234.198 M178.691 251.545 C 178.230 252.788,177.720 254.130,177.558 254.529 C 176.610 256.865,176.449 257.314,176.449 257.635 C 176.449 257.856,178.478 257.952,181.793 257.890 L 187.138 257.790 187.252 256.793 C 187.334 256.082,187.205 255.797,186.799 255.797 C 186.353 255.797,186.232 255.372,186.232 253.804 C 186.232 251.660,186.052 251.511,184.459 252.335 C 183.468 252.847,183.409 252.820,181.755 251.067 C 179.645 248.832,179.701 248.823,178.691 251.545 M175.362 261.627 C 174.953 261.917,174.931 262.057,175.272 262.195 C 175.521 262.297,175.725 262.610,175.725 262.893 C 175.725 263.198,176.091 263.406,176.630 263.406 C 177.194 263.406,177.536 263.611,177.536 263.949 C 177.536 264.248,177.781 264.493,178.080 264.493 C 178.379 264.493,178.623 264.644,178.623 264.829 C 178.623 265.756,180.992 266.304,184.999 266.304 C 188.827 266.304,189.127 266.357,189.671 267.120 C 190.243 267.920,190.263 267.922,190.779 267.231 C 191.484 266.288,191.472 264.493,190.761 264.493 C 190.450 264.493,190.217 264.166,190.217 263.729 C 190.217 261.580,189.143 261.244,182.246 261.244 C 178.359 261.243,175.696 261.392,175.362 261.627 M205.926 261.780 C 205.185 263.712,206.389 269.121,207.256 267.751 C 208.000 266.574,207.686 261.232,206.873 261.232 C 206.468 261.232,206.042 261.479,205.926 261.780 M212.832 261.723 C 211.901 264.151,213.330 268.141,214.764 267.115 C 215.113 266.866,215.643 266.550,215.942 266.413 C 216.707 266.062,217.391 265.339,217.391 264.881 C 217.391 264.667,217.563 264.493,217.772 264.493 C 218.489 264.493,220.657 261.822,220.184 261.521 C 219.372 261.005,213.041 261.179,212.832 261.723 M173.913 262.862 C 173.544 263.307,173.568 263.406,174.050 263.406 C 174.373 263.406,174.638 263.161,174.638 262.862 C 174.638 262.563,174.576 262.319,174.501 262.319 C 174.426 262.319,174.161 262.563,173.913 262.862 M104.710 335.261 L 104.710 357.478 105.739 358.630 C 106.305 359.264,106.957 359.783,107.188 359.783 C 107.419 359.783,107.609 360.027,107.609 360.326 C 107.609 360.625,107.853 360.870,108.152 360.870 C 108.451 360.870,108.696 361.097,108.696 361.374 C 108.696 362.283,109.608 362.319,132.457 362.319 L 155.072 362.319 155.072 361.051 L 155.072 359.783 135.145 359.783 C 122.101 359.783,115.217 359.657,115.217 359.420 C 115.217 359.221,114.484 359.058,113.587 359.058 C 111.999 359.058,110.507 358.180,110.507 357.246 C 110.507 357.047,110.290 356.884,110.025 356.884 C 109.404 356.884,108.807 355.637,108.552 353.807 C 108.441 353.012,108.184 352.305,107.980 352.237 C 107.733 352.155,107.609 345.580,107.609 332.579 L 107.609 313.043 106.159 313.043 L 104.710 313.043 104.710 335.261 M297.464 332.609 C 297.464 349.758,297.397 352.174,296.920 352.174 C 296.543 352.174,296.377 352.553,296.377 353.413 C 296.377 354.624,295.377 356.877,294.837 356.882 C 294.688 356.883,294.565 357.129,294.565 357.428 C 294.565 357.726,294.321 357.971,294.022 357.971 C 293.723 357.971,293.478 358.216,293.478 358.514 C 293.478 358.932,293.015 359.058,291.486 359.058 C 290.389 359.058,289.493 359.221,289.493 359.420 C 289.493 359.657,282.911 359.783,270.471 359.783 L 251.449 359.783 251.449 361.051 L 251.449 362.319 272.554 362.315 C 294.223 362.311,296.377 362.225,296.377 361.366 C 296.377 361.093,296.621 360.870,296.920 360.870 C 297.219 360.870,297.464 360.664,297.464 360.412 C 297.464 360.160,297.871 359.648,298.370 359.274 C 298.888 358.885,299.275 358.228,299.275 357.739 C 299.275 357.221,299.489 356.884,299.819 356.884 C 300.296 356.884,300.362 354.207,300.362 334.964 L 300.362 313.043 298.913 313.043 L 297.464 313.043 297.464 332.609 M170.810 320.204 C 170.858 320.528,171.086 320.857,171.318 320.934 C 172.002 321.163,171.882 326.679,171.187 326.946 C 170.800 327.095,170.703 327.431,170.864 328.072 C 171.009 328.652,170.941 328.986,170.676 328.986 C 170.447 328.986,169.900 329.322,169.459 329.733 C 168.856 330.296,168.815 330.420,169.293 330.237 C 169.773 330.054,169.928 330.181,169.928 330.758 C 169.928 331.194,169.695 331.522,169.387 331.522 C 168.985 331.522,168.861 331.906,168.904 333.013 C 168.945 334.053,168.786 334.603,168.379 334.831 C 167.201 335.490,167.633 339.378,168.912 339.634 C 169.494 339.750,170.216 340.092,170.518 340.394 C 171.329 341.205,171.911 341.073,173.301 339.764 C 173.990 339.117,175.540 337.662,176.746 336.531 C 181.151 332.400,181.156 331.059,176.787 325.385 C 173.211 320.742,170.550 318.435,170.810 320.204 " stroke="none" fill="#439e30" fill-rule="evenodd"></path><path id="path2" d="M118.207 68.745 C 119.153 68.819,120.702 68.819,121.649 68.745 C 122.595 68.670,121.821 68.609,119.928 68.609 C 118.034 68.609,117.260 68.670,118.207 68.745 M119.022 120.504 C 118.225 120.992,117.369 121.488,117.120 121.604 C 116.870 121.721,116.667 121.988,116.667 122.196 C 116.667 122.405,116.968 122.304,117.336 121.971 C 117.703 121.638,118.804 120.969,119.781 120.484 C 120.758 120.000,121.313 119.606,121.014 119.609 C 120.716 119.613,119.819 120.015,119.022 120.504 M127.929 119.703 C 128.336 120.073,131.137 121.272,130.973 121.005 C 130.740 120.629,128.651 119.565,128.145 119.565 C 127.943 119.565,127.846 119.627,127.929 119.703 M133.350 123.460 C 134.413 124.606,135.366 125.625,135.467 125.725 C 135.568 125.824,135.347 125.417,134.977 124.819 C 134.299 123.725,132.012 121.377,131.625 121.377 C 131.510 121.377,132.287 122.314,133.350 123.460 M114.409 124.366 C 113.546 125.695,112.572 127.911,112.766 128.104 C 112.865 128.203,113.157 127.749,113.415 127.095 C 113.673 126.441,114.274 125.376,114.750 124.728 C 115.227 124.081,115.464 123.551,115.278 123.551 C 115.091 123.551,114.700 123.918,114.409 124.366 M135.507 126.157 C 135.507 126.272,135.745 126.915,136.037 127.585 C 136.403 128.429,136.567 128.581,136.568 128.080 C 136.570 127.681,136.332 127.039,136.039 126.652 C 135.747 126.265,135.507 126.042,135.507 126.157 M122.101 134.783 C 122.101 134.982,122.346 135.145,122.645 135.145 C 122.944 135.145,123.188 134.982,123.188 134.783 C 123.188 134.583,122.944 134.420,122.645 134.420 C 122.346 134.420,122.101 134.583,122.101 134.783 M136.168 134.964 C 136.049 135.362,135.832 136.014,135.685 136.413 C 135.456 137.034,135.506 137.020,136.031 136.316 C 136.369 135.864,136.586 135.211,136.514 134.866 C 136.401 134.322,136.355 134.335,136.168 134.964 M112.724 135.145 C 112.732 135.974,114.652 139.245,115.241 139.433 C 115.619 139.553,115.586 139.402,115.121 138.877 C 114.769 138.480,114.085 137.355,113.600 136.378 C 113.116 135.401,112.722 134.846,112.724 135.145 M133.387 139.516 C 131.271 141.861,131.109 142.356,133.068 140.489 C 134.163 139.445,135.807 137.281,135.458 137.342 C 135.386 137.355,134.453 138.333,133.387 139.516 M116.667 140.853 C 116.667 141.015,117.156 141.437,117.754 141.790 C 118.351 142.143,118.841 142.372,118.841 142.299 C 118.841 142.225,118.351 141.804,117.754 141.362 C 117.156 140.920,116.667 140.691,116.667 140.853 M119.768 142.923 C 120.155 143.216,120.797 143.454,121.196 143.453 C 121.697 143.451,121.545 143.287,120.701 142.921 C 119.154 142.249,118.877 142.250,119.768 142.923 M128.261 142.965 C 127.467 143.406,127.444 143.467,128.080 143.461 C 128.478 143.458,129.121 143.216,129.508 142.923 C 130.418 142.235,129.522 142.265,128.261 142.965 M167.160 340.036 C 167.008 340.433,166.382 340.580,164.838 340.580 C 163.675 340.580,162.636 340.721,162.529 340.894 C 162.422 341.068,161.679 341.314,160.878 341.442 C 160.076 341.570,159.420 341.836,159.420 342.033 C 159.420 342.230,159.176 342.391,158.877 342.391 C 158.578 342.391,158.333 342.554,158.333 342.754 C 158.333 342.953,158.089 343.116,157.790 343.116 C 156.537 343.116,157.186 346.816,158.478 347.039 C 158.857 347.105,159.398 347.390,159.682 347.673 C 159.965 347.957,160.661 348.188,161.228 348.188 C 161.795 348.188,162.322 348.380,162.400 348.613 C 162.480 348.852,163.528 349.109,164.791 349.201 C 166.028 349.290,167.129 349.507,167.237 349.682 C 167.346 349.857,169.136 350.000,171.217 350.000 C 174.050 350.000,174.977 350.114,174.909 350.453 C 174.760 351.199,212.785 351.292,213.403 350.547 C 213.751 350.127,214.684 350.000,217.405 350.000 C 219.357 350.000,221.008 349.846,221.075 349.658 C 221.141 349.470,222.136 349.279,223.286 349.233 C 224.489 349.186,225.547 348.946,225.776 348.670 C 225.996 348.405,226.633 348.188,227.192 348.188 C 227.752 348.188,228.454 347.944,228.753 347.645 C 229.052 347.346,229.520 347.101,229.793 347.101 C 230.421 347.101,231.159 346.377,231.159 345.761 C 231.159 345.378,225.623 345.290,201.660 345.290 C 169.163 345.290,171.014 345.398,171.014 343.499 C 171.014 342.455,170.768 341.929,169.928 341.180 C 169.330 340.648,168.841 340.050,168.841 339.852 C 168.841 339.278,167.390 339.437,167.160 340.036 " stroke="none" fill="#dcecdb" fill-rule="evenodd"></path><path id="path3" d="M105.697 112.718 L 104.710 113.843 104.710 131.529 C 104.710 149.534,104.753 150.362,105.676 150.362 C 105.965 150.362,106.113 150.507,106.004 150.683 C 105.311 151.804,297.385 151.890,298.505 150.770 C 298.879 150.396,299.409 150.016,299.683 149.925 C 300.314 149.714,300.639 113.768,300.010 113.768 C 299.805 113.768,299.638 113.593,299.638 113.380 C 299.638 112.844,298.688 111.940,298.413 112.215 C 298.289 112.339,298.188 112.249,298.188 112.017 C 298.188 111.696,275.149 111.594,202.436 111.594 L 106.683 111.594 105.697 112.718 M129.397 120.024 C 138.968 125.155,139.555 136.802,130.520 142.314 C 127.701 144.034,121.692 144.072,118.835 142.388 C 110.065 137.217,110.192 125.613,119.076 120.430 C 120.739 119.459,127.824 119.181,129.397 120.024 M147.016 131.401 C 146.943 140.189,146.814 142.910,146.467 143.025 C 146.111 143.144,146.014 140.690,146.014 131.552 C 146.014 121.413,146.085 119.928,146.563 119.928 C 147.043 119.928,147.100 121.354,147.016 131.401 M282.671 120.527 C 283.543 121.317,283.507 122.051,282.546 123.074 L 281.758 123.913 218.529 123.913 L 155.300 123.913 154.462 123.125 C 153.474 122.197,153.430 121.814,154.187 120.733 L 154.751 119.928 218.380 119.928 C 277.078 119.928,282.059 119.974,282.671 120.527 M240.870 130.145 C 241.430 130.705,241.430 132.338,240.870 132.899 C 240.094 133.674,155.146 133.512,154.286 132.734 C 153.476 132.001,153.456 131.559,154.187 130.515 L 154.751 129.710 197.593 129.710 C 230.431 129.710,240.536 129.812,240.870 130.145 M260.064 139.694 C 261.042 140.379,261.108 141.701,260.206 142.518 C 259.593 143.072,255.507 143.111,207.049 143.027 L 154.557 142.935 154.008 141.958 C 153.494 141.042,153.515 140.923,154.329 140.056 L 155.199 139.130 207.229 139.130 C 253.734 139.130,259.345 139.190,260.064 139.694 " stroke="none" fill="#f4fcec" fill-rule="evenodd"></path><path id="path4" d="M-0.000 7.992 C -0.000 12.388,0.122 15.909,0.272 15.816 C 0.421 15.724,0.496 19.075,0.439 23.264 C 0.351 29.610,0.426 31.022,0.887 31.725 C 1.337 32.411,1.445 33.997,1.465 40.191 C 1.485 46.404,1.585 47.866,2.007 48.102 C 2.429 48.338,2.530 49.791,2.552 55.925 C 2.577 63.119,2.729 64.993,3.221 64.194 C 3.342 63.997,3.390 67.139,3.327 71.178 C 3.226 77.580,3.287 78.598,3.801 79.112 C 4.310 79.620,4.392 80.798,4.398 87.675 C 4.403 94.106,4.502 95.702,4.909 95.930 C 5.312 96.156,5.422 97.726,5.458 103.782 C 5.492 109.484,5.620 111.469,5.977 111.826 C 6.584 112.433,9.158 112.376,8.921 111.761 C 8.829 111.519,9.019 111.342,9.346 111.367 C 9.735 111.397,10.007 111.040,10.136 110.326 C 10.244 109.728,10.417 109.321,10.519 109.420 C 10.974 109.863,12.381 108.012,12.148 107.278 C 11.974 106.731,12.065 106.522,12.476 106.522 C 12.788 106.522,13.043 106.359,13.043 106.159 C 13.043 105.960,13.288 105.797,13.587 105.797 C 13.886 105.797,14.130 105.553,14.130 105.254 C 14.130 104.955,14.289 104.710,14.482 104.710 C 14.676 104.710,14.969 104.180,15.134 103.533 C 15.308 102.849,15.776 102.203,16.249 101.993 C 16.740 101.774,17.003 101.398,16.912 101.044 C 16.815 100.673,16.975 100.474,17.347 100.501 C 17.697 100.526,17.981 100.214,18.050 99.728 C 18.114 99.280,18.328 98.913,18.525 98.913 C 18.722 98.913,18.776 98.739,18.644 98.526 C 18.513 98.313,18.747 98.050,19.166 97.941 C 19.585 97.831,19.928 97.516,19.928 97.240 C 19.928 96.965,20.102 96.739,20.316 96.739 C 20.817 96.739,21.739 95.817,21.739 95.316 C 21.739 95.102,21.984 94.928,22.283 94.928 C 22.621 94.928,22.826 94.585,22.826 94.022 C 22.826 93.458,23.031 93.116,23.370 93.116 C 23.668 93.116,23.913 92.871,23.913 92.572 C 23.913 92.234,24.255 92.029,24.819 92.029 C 25.382 92.029,25.725 91.824,25.725 91.486 C 25.725 91.187,25.942 90.942,26.207 90.942 C 26.472 90.942,26.907 90.534,27.174 90.036 C 27.441 89.538,27.876 89.130,28.141 89.130 C 28.406 89.130,28.623 88.886,28.623 88.587 C 28.623 88.288,28.799 88.043,29.013 88.043 C 29.520 88.043,31.522 86.042,31.522 85.535 C 31.522 85.321,31.941 85.145,32.453 85.145 C 33.409 85.145,34.420 84.413,34.420 83.722 C 34.420 83.508,34.843 83.333,35.360 83.333 C 35.993 83.333,36.361 83.098,36.488 82.613 C 36.592 82.216,36.821 81.982,36.998 82.091 C 37.174 82.200,37.319 82.035,37.319 81.724 C 37.319 81.338,37.663 81.159,38.406 81.159 C 39.004 81.159,39.493 80.996,39.493 80.797 C 39.493 80.598,39.813 80.435,40.205 80.435 C 40.596 80.435,41.093 80.104,41.310 79.700 C 41.526 79.296,41.858 79.061,42.047 79.178 C 42.236 79.295,42.391 79.136,42.391 78.826 C 42.391 78.465,42.718 78.261,43.297 78.261 C 43.795 78.261,44.203 78.098,44.203 77.899 C 44.203 77.699,44.855 77.536,45.652 77.536 C 46.699 77.536,47.101 77.385,47.101 76.993 C 47.101 76.478,47.896 76.281,49.366 76.430 C 49.727 76.467,50.000 76.251,50.000 75.929 C 50.000 75.509,50.377 75.362,51.449 75.362 C 52.246 75.362,52.899 75.199,52.899 75.000 C 52.899 74.801,53.376 74.638,53.960 74.638 C 54.543 74.638,55.265 74.393,55.564 74.094 C 55.887 73.771,56.773 73.551,57.746 73.551 C 58.798 73.551,59.489 73.363,59.677 73.027 C 59.875 72.674,60.739 72.467,62.322 72.393 C 63.630 72.331,64.647 72.122,64.613 71.920 C 64.575 71.695,65.739 71.599,67.685 71.666 C 70.215 71.752,70.899 71.662,71.239 71.198 C 71.592 70.715,72.561 70.624,77.301 70.631 C 81.946 70.637,82.996 70.543,83.247 70.095 C 83.506 69.632,85.080 69.549,93.849 69.536 C 100.728 69.526,104.304 69.389,104.622 69.125 C 105.375 68.501,129.645 68.511,130.031 69.136 C 130.241 69.476,131.201 69.599,133.369 69.564 C 143.677 69.400,148.551 69.569,148.551 70.090 C 148.551 70.526,149.519 70.618,154.241 70.631 C 158.927 70.644,159.986 70.743,160.238 71.194 C 160.486 71.636,161.299 71.727,164.514 71.670 C 167.191 71.622,168.624 71.740,168.916 72.032 C 169.194 72.310,170.672 72.464,173.080 72.464 C 175.990 72.464,176.812 72.573,176.812 72.958 C 176.812 73.331,177.472 73.452,179.505 73.452 C 181.526 73.452,182.349 73.601,182.797 74.050 C 183.271 74.523,184.005 74.630,186.327 74.563 C 188.377 74.503,189.303 74.610,189.406 74.920 C 189.507 75.224,190.562 75.362,192.784 75.362 C 195.285 75.362,196.014 75.475,196.014 75.861 C 196.014 76.236,196.705 76.373,198.813 76.414 C 200.772 76.452,201.696 76.618,201.892 76.968 C 202.090 77.323,202.992 77.477,204.979 77.498 C 206.527 77.514,207.842 77.691,207.909 77.894 C 207.976 78.096,209.078 78.261,210.356 78.261 C 212.207 78.261,212.681 78.375,212.681 78.818 C 212.681 79.175,212.974 79.350,213.496 79.305 C 216.231 79.070,218.811 79.366,218.609 79.891 C 218.495 80.190,218.581 80.435,218.802 80.435 C 219.022 80.435,219.205 80.231,219.208 79.982 C 219.213 79.648,219.296 79.658,219.525 80.020 C 219.740 80.359,220.410 80.471,221.694 80.382 C 223.007 80.291,223.551 80.386,223.551 80.707 C 223.551 81.022,224.263 81.159,225.906 81.159 C 227.758 81.159,228.261 81.276,228.261 81.703 C 228.261 82.119,228.720 82.246,230.215 82.246 C 231.618 82.246,232.228 82.400,232.377 82.790 C 232.492 83.089,232.845 83.333,233.162 83.333 C 233.518 83.333,233.641 83.160,233.483 82.880 C 233.278 82.518,233.325 82.518,233.715 82.880 C 233.983 83.130,234.753 83.333,235.424 83.333 C 236.096 83.333,236.883 83.570,237.172 83.859 C 237.523 84.210,238.379 84.367,239.749 84.331 C 241.061 84.297,241.852 84.434,241.945 84.711 C 242.037 84.988,242.932 85.145,244.414 85.145 C 246.243 85.145,246.739 85.261,246.739 85.690 C 246.739 86.121,247.199 86.225,248.929 86.186 C 250.628 86.148,251.221 86.277,251.578 86.765 C 251.942 87.263,252.459 87.367,254.053 87.266 C 255.556 87.170,256.024 87.253,255.894 87.591 C 255.765 87.925,256.347 88.043,258.113 88.043 C 260.000 88.043,260.507 88.159,260.507 88.587 C 260.507 89.010,260.993 89.130,262.707 89.130 C 264.069 89.130,265.093 89.316,265.395 89.619 C 265.713 89.937,266.698 90.093,268.223 90.067 C 270.052 90.036,270.522 90.135,270.375 90.518 C 270.241 90.868,270.485 90.987,271.235 90.936 C 273.766 90.765,275.000 90.945,275.000 91.486 C 275.000 91.912,275.500 92.029,277.325 92.029 C 278.847 92.029,279.701 92.183,279.799 92.476 C 279.897 92.770,280.865 92.942,282.623 92.979 C 284.220 93.012,285.353 93.196,285.433 93.437 C 285.509 93.666,286.400 93.841,287.491 93.841 C 288.867 93.841,289.475 93.995,289.624 94.384 C 289.783 94.800,290.466 94.928,292.531 94.928 C 294.356 94.928,295.278 95.073,295.379 95.377 C 295.477 95.671,296.454 95.851,298.210 95.899 C 299.710 95.940,300.948 96.141,301.020 96.356 C 301.097 96.589,302.481 96.739,304.559 96.739 C 307.350 96.739,307.971 96.838,307.971 97.283 C 307.971 97.720,308.530 97.826,310.831 97.826 C 312.957 97.826,313.741 97.957,313.887 98.337 C 314.034 98.721,314.850 98.847,317.179 98.847 C 319.576 98.847,320.411 98.982,320.875 99.446 C 321.382 99.953,322.226 100.032,326.387 99.961 C 329.755 99.904,331.342 100.005,331.435 100.283 C 331.642 100.905,353.503 100.903,353.711 100.280 C 353.825 99.939,354.873 99.839,357.742 99.895 C 360.111 99.941,361.536 99.837,361.406 99.627 C 361.290 99.438,361.447 99.381,361.757 99.499 C 362.066 99.618,362.319 99.535,362.319 99.314 C 362.319 99.070,363.096 98.913,364.312 98.913 C 365.841 98.913,366.304 98.787,366.304 98.370 C 366.304 97.848,367.112 97.655,368.620 97.816 C 369.110 97.868,369.242 97.725,369.084 97.314 C 368.864 96.740,370.014 96.534,372.373 96.725 C 372.822 96.761,373.188 96.616,373.188 96.403 C 373.188 96.189,373.579 96.014,374.055 96.014 C 374.532 96.014,375.016 95.770,375.131 95.471 C 375.246 95.172,375.752 94.928,376.257 94.928 C 376.830 94.928,377.174 94.724,377.174 94.384 C 377.174 94.046,377.516 93.841,378.080 93.841 C 378.578 93.841,378.986 93.678,378.986 93.478 C 378.986 93.279,379.230 93.116,379.529 93.116 C 379.828 93.116,380.072 92.871,380.072 92.572 C 380.072 92.234,380.415 92.029,380.978 92.029 C 381.542 92.029,381.884 91.824,381.884 91.486 C 381.884 91.187,382.138 90.942,382.449 90.942 C 382.760 90.942,382.913 90.779,382.790 90.580 C 382.667 90.380,382.902 90.217,383.312 90.217 C 383.734 90.217,384.058 89.981,384.058 89.674 C 384.058 89.336,384.400 89.130,384.964 89.130 C 385.527 89.130,385.870 88.925,385.870 88.587 C 385.870 88.288,386.087 88.043,386.352 88.043 C 386.617 88.043,387.052 87.636,387.319 87.138 C 387.585 86.639,388.021 86.232,388.286 86.232 C 388.551 86.232,388.768 85.987,388.768 85.688 C 388.768 85.389,389.024 85.145,389.336 85.145 C 389.739 85.145,389.837 84.935,389.673 84.419 C 389.520 83.936,389.633 83.619,390.009 83.475 C 390.321 83.355,390.479 83.100,390.360 82.909 C 390.241 82.717,390.487 82.470,390.906 82.361 C 391.324 82.251,391.667 81.936,391.667 81.661 C 391.667 81.385,391.911 81.159,392.210 81.159 C 392.542 81.159,392.754 80.822,392.754 80.292 C 392.754 79.816,392.998 79.332,393.297 79.217 C 393.596 79.102,393.841 78.677,393.841 78.272 C 393.841 77.867,394.004 77.536,394.203 77.536 C 394.402 77.536,394.565 77.047,394.565 76.449 C 394.565 75.725,394.746 75.362,395.109 75.362 C 395.414 75.362,395.652 75.039,395.652 74.625 C 395.652 74.219,395.916 73.485,396.238 72.994 C 396.560 72.502,396.748 71.708,396.657 71.228 C 396.537 70.604,396.628 70.409,396.977 70.543 C 397.349 70.686,397.464 70.250,397.464 68.698 C 397.464 67.209,397.598 66.667,397.965 66.667 C 398.324 66.667,398.467 66.164,398.467 64.906 C 398.467 63.932,398.718 62.759,399.028 62.279 C 399.704 61.234,399.728 60.517,399.734 41.123 C 399.739 20.286,399.575 14.540,398.963 14.162 C 398.585 13.928,398.478 12.756,398.505 9.139 C 398.533 5.280,398.441 4.383,398.001 4.215 C 397.616 4.067,397.464 3.441,397.464 2.004 L 397.464 0.000 198.732 0.000 L 0.000 0.000 -0.000 7.992 M105.344 112.349 C 104.638 113.123,104.554 113.406,105.031 113.406 C 105.207 113.406,105.619 112.998,105.945 112.500 C 106.639 111.440,106.261 111.345,105.344 112.349 M146.014 131.552 C 146.014 140.690,146.111 143.144,146.467 143.025 C 147.213 142.777,147.307 119.928,146.563 119.928 C 146.085 119.928,146.014 121.413,146.014 131.552 M154.187 120.733 C 153.430 121.814,153.474 122.197,154.462 123.125 L 155.300 123.913 218.529 123.913 L 281.758 123.913 282.546 123.074 C 283.507 122.051,283.543 121.317,282.671 120.527 C 282.059 119.974,277.078 119.928,218.380 119.928 L 154.751 119.928 154.187 120.733 M154.187 130.515 C 152.100 133.496,149.590 133.333,197.692 133.333 C 243.380 133.333,241.304 133.420,241.304 131.522 C 241.304 129.624,243.386 129.710,197.593 129.710 L 154.751 129.710 154.187 130.515 M154.329 140.056 C 153.515 140.923,153.494 141.042,154.008 141.958 L 154.557 142.935 207.049 143.027 C 264.635 143.127,260.870 143.263,260.870 141.088 C 260.870 139.019,263.929 139.130,207.229 139.130 L 155.199 139.130 154.329 140.056 M299.185 150.207 C 298.093 150.799,297.880 151.329,298.732 151.329 C 299.031 151.329,299.275 151.170,299.275 150.976 C 299.275 150.782,299.561 150.407,299.909 150.142 C 300.746 149.507,300.422 149.536,299.185 150.207 " stroke="none" fill="#fcfcfc" fill-rule="evenodd"></path><path id="path5" d="M122.450 119.885 C 116.925 121.032,112.874 125.955,112.874 131.522 C 112.874 143.963,129.983 147.674,135.321 136.391 C 139.248 128.091,131.400 118.027,122.450 119.885 M127.291 120.802 C 130.473 121.630,133.948 124.448,134.927 126.993 C 136.169 130.224,135.904 134.732,134.332 137.098 C 131.113 141.943,125.387 143.841,120.109 141.811 C 118.805 141.309,115.639 138.542,115.178 137.500 C 115.001 137.101,114.708 136.531,114.525 136.232 C 114.343 135.933,113.991 134.751,113.742 133.605 C 113.285 131.501,113.663 128.225,114.525 126.812 C 114.708 126.513,115.001 125.942,115.178 125.543 C 115.545 124.713,118.279 122.101,118.780 122.101 C 118.964 122.101,119.317 121.857,119.565 121.558 C 119.813 121.259,120.445 121.012,120.968 121.009 C 121.492 121.006,122.165 120.845,122.464 120.652 C 123.236 120.153,125.013 120.208,127.291 120.802 M128.442 128.537 C 123.903 132.779,122.398 133.765,121.848 132.854 C 121.340 132.013,119.287 130.703,118.875 130.957 C 118.153 131.403,118.470 132.778,119.478 133.574 C 120.024 134.006,120.863 134.698,121.342 135.114 C 122.403 136.035,122.860 136.057,123.813 135.236 C 124.217 134.887,125.335 133.949,126.297 133.152 C 130.164 129.947,131.648 128.387,131.413 127.775 C 131.044 126.813,130.000 127.080,128.442 128.537 M130.389 128.533 C 130.115 128.881,129.703 129.330,129.473 129.529 C 129.243 129.728,128.203 130.625,127.162 131.522 C 126.121 132.418,124.814 133.601,124.257 134.149 C 122.886 135.498,122.201 135.388,120.301 133.517 C 118.368 131.614,118.604 130.920,120.631 132.548 C 121.416 133.179,122.330 133.696,122.662 133.696 C 123.387 133.696,126.652 131.200,128.921 128.912 C 130.052 127.772,131.223 127.469,130.389 128.533 M245.833 181.159 C 245.710 181.359,245.130 181.522,244.544 181.522 C 243.307 181.522,243.162 182.212,243.992 184.136 C 244.274 184.791,244.763 185.921,245.078 186.649 C 245.394 187.377,245.652 188.233,245.652 188.551 C 245.652 188.870,245.815 189.130,246.014 189.130 C 246.214 189.130,246.378 189.416,246.379 189.764 C 246.380 190.113,246.625 190.866,246.923 191.436 C 247.220 192.007,247.469 192.741,247.475 193.067 C 247.482 193.393,247.726 193.976,248.019 194.363 C 248.311 194.750,248.551 195.415,248.551 195.842 C 248.551 196.269,248.668 196.736,248.812 196.879 C 248.955 197.023,249.077 197.480,249.083 197.895 C 249.089 198.309,249.411 198.831,249.798 199.053 C 250.184 199.275,250.855 199.783,251.287 200.181 C 251.720 200.580,252.443 201.150,252.893 201.449 C 253.343 201.748,253.925 202.197,254.185 202.446 C 254.445 202.695,254.909 202.899,255.216 202.899 C 255.564 202.899,255.696 203.104,255.566 203.442 C 255.438 203.776,255.566 203.986,255.901 203.986 C 256.200 203.986,256.542 204.240,256.662 204.552 C 256.781 204.863,257.025 205.028,257.203 204.918 C 257.381 204.808,257.728 204.961,257.974 205.258 C 258.221 205.554,258.647 205.797,258.921 205.797 C 259.196 205.797,259.420 206.042,259.420 206.341 C 259.420 206.639,259.590 206.884,259.798 206.884 C 260.005 206.884,260.519 207.205,260.940 207.596 C 261.360 207.988,261.842 208.223,262.011 208.118 C 262.180 208.014,262.319 208.101,262.319 208.312 C 262.319 208.523,262.482 208.696,262.681 208.696 C 263.119 208.696,264.493 210.023,264.493 210.447 C 264.493 210.950,265.670 210.786,266.371 210.185 C 266.733 209.875,267.029 209.186,267.029 208.654 C 267.029 208.122,267.274 207.592,267.572 207.478 C 267.892 207.355,268.116 206.812,268.116 206.159 C 268.116 205.532,268.341 204.963,268.633 204.851 C 268.918 204.742,269.091 204.343,269.018 203.964 C 268.945 203.586,269.041 203.180,269.231 203.062 C 269.421 202.945,269.483 202.697,269.369 202.511 C 269.254 202.326,269.333 202.174,269.544 202.174 C 269.755 202.174,269.928 201.594,269.928 200.884 C 269.928 200.175,270.073 199.685,270.252 199.795 C 270.626 200.027,271.014 199.181,271.014 198.133 C 271.014 197.736,271.253 197.173,271.545 196.881 C 272.174 196.252,272.082 192.227,271.424 191.569 C 271.177 191.322,271.013 189.785,271.011 187.699 C 271.006 183.768,270.707 181.445,270.244 181.731 C 270.070 181.839,269.928 181.673,269.928 181.362 C 269.928 180.683,246.251 180.484,245.833 181.159 M192.029 190.580 C 192.029 191.178,192.179 191.667,192.363 191.667 C 192.546 191.667,192.803 192.154,192.934 192.749 C 193.065 193.345,193.322 193.925,193.506 194.039 C 193.690 194.153,193.841 194.497,193.841 194.804 C 193.841 195.357,194.621 197.338,195.387 198.732 C 195.606 199.130,195.880 200.027,195.995 200.725 C 196.161 201.727,196.394 202.019,197.106 202.120 C 197.602 202.190,198.094 202.386,198.199 202.556 C 198.305 202.726,198.998 202.906,199.739 202.956 C 200.554 203.011,201.087 203.232,201.087 203.516 C 201.087 203.779,201.497 203.986,202.019 203.986 C 202.531 203.986,203.195 204.230,203.494 204.529 C 204.632 205.667,207.609 205.115,207.609 203.766 C 207.609 203.236,207.820 202.899,208.152 202.899 C 208.484 202.899,208.696 202.561,208.696 202.032 C 208.696 201.555,208.940 201.071,209.239 200.956 C 209.538 200.841,209.783 200.518,209.783 200.237 C 209.783 199.956,210.005 199.542,210.276 199.317 C 210.903 198.796,210.832 191.501,210.188 190.298 C 209.761 189.500,209.681 189.493,200.893 189.493 L 192.029 189.493 192.029 190.580 M194.364 206.489 C 194.476 206.670,194.078 207.230,193.479 207.733 C 192.881 208.237,192.391 208.832,192.391 209.056 C 192.391 209.280,192.245 209.373,192.067 209.262 C 191.660 209.011,187.795 212.838,187.492 213.792 C 187.338 214.278,187.473 214.570,187.928 214.734 C 189.519 215.307,190.159 216.552,189.448 217.690 C 189.135 218.193,189.176 218.603,189.629 219.479 C 189.953 220.104,190.217 220.849,190.217 221.133 C 190.217 221.418,190.462 221.853,190.761 222.101 C 191.060 222.350,191.304 222.923,191.304 223.375 C 191.304 223.828,191.549 224.292,191.848 224.406 C 192.147 224.521,192.391 225.033,192.391 225.545 C 192.391 227.123,193.395 228.261,194.788 228.261 C 195.838 228.261,196.014 228.137,196.014 227.399 C 196.014 226.170,196.958 225.461,197.851 226.018 C 198.749 226.579,198.913 226.562,198.913 225.906 C 198.913 225.601,199.236 225.362,199.649 225.362 C 200.054 225.362,200.479 225.118,200.594 224.819 C 200.708 224.520,201.029 224.275,201.307 224.275 C 201.584 224.275,201.812 224.151,201.812 223.999 C 201.812 223.726,202.867 223.078,204.045 222.626 C 204.377 222.499,204.751 221.986,204.877 221.486 C 205.142 220.432,207.278 217.487,209.293 215.399 C 210.062 214.601,211.261 213.221,211.958 212.332 C 212.655 211.442,213.609 210.301,214.078 209.796 C 214.548 209.290,215.417 208.265,216.011 207.518 L 217.090 206.159 205.625 206.159 C 198.841 206.159,194.243 206.294,194.364 206.489 M141.065 207.450 C 140.955 207.736,140.637 207.971,140.360 207.971 C 140.082 207.971,139.855 208.216,139.855 208.514 C 139.855 208.813,139.693 209.058,139.496 209.058 C 139.102 209.058,137.805 210.084,136.061 211.775 C 135.444 212.373,134.700 212.862,134.408 212.862 C 134.116 212.862,133.918 213.066,133.967 213.315 C 134.017 213.564,133.813 213.768,133.514 213.768 C 133.184 213.768,132.971 214.105,132.971 214.630 C 132.971 215.103,132.726 215.694,132.428 215.942 C 132.129 216.190,131.884 216.781,131.884 217.255 C 131.884 217.728,131.711 218.116,131.500 218.116 C 131.289 218.116,131.217 218.279,131.341 218.478 C 131.464 218.678,131.392 218.841,131.181 218.841 C 130.970 218.841,130.797 219.248,130.797 219.746 C 130.797 220.245,130.634 220.652,130.435 220.652 C 130.234 220.652,130.077 221.581,130.083 222.736 C 130.094 224.797,131.443 227.174,132.604 227.174 C 132.806 227.174,132.971 227.359,132.971 227.585 C 132.971 227.812,133.379 228.374,133.877 228.836 C 134.375 229.298,134.783 229.772,134.783 229.889 C 134.783 230.129,135.163 230.605,136.866 232.492 C 137.514 233.210,138.043 233.947,138.043 234.130 C 138.043 234.313,138.207 234.362,138.406 234.239 C 138.605 234.116,138.768 234.176,138.768 234.373 C 138.768 234.570,139.339 235.336,140.036 236.076 C 140.734 236.815,141.304 237.582,141.304 237.780 C 141.304 238.962,144.267 237.662,146.398 235.544 C 147.622 234.328,148.729 233.328,148.858 233.321 C 149.313 233.298,150.725 231.945,150.725 231.533 C 150.725 231.304,150.888 231.217,151.087 231.341 C 151.286 231.464,151.449 231.382,151.449 231.159 C 151.449 230.937,151.638 230.871,151.868 231.013 C 152.111 231.163,152.188 231.113,152.052 230.893 C 151.923 230.684,152.235 230.241,152.745 229.907 C 153.978 229.099,155.072 227.984,155.072 227.536 C 155.072 227.337,155.317 227.174,155.616 227.174 C 155.978 227.174,156.159 226.812,156.159 226.087 C 156.159 225.489,156.315 225.000,156.505 225.000 C 156.696 225.000,156.958 224.429,157.089 223.732 C 157.220 223.034,157.490 222.464,157.690 222.464 C 157.908 222.464,157.956 221.993,157.811 221.286 C 157.464 219.603,157.487 218.494,157.887 217.615 C 158.248 216.823,158.967 214.273,159.278 212.681 C 159.375 212.183,159.718 210.942,160.039 209.923 C 161.050 206.719,161.484 206.860,150.712 206.896 C 142.846 206.923,141.231 207.015,141.065 207.450 M163.496 225.602 C 163.247 225.703,163.043 225.952,163.043 226.155 C 163.043 226.359,162.677 226.983,162.228 227.542 C 161.780 228.101,161.128 228.932,160.779 229.389 C 159.986 230.428,159.927 232.910,160.688 233.202 C 160.987 233.317,161.232 233.742,161.232 234.146 C 161.232 234.550,161.639 235.258,162.138 235.720 C 162.636 236.182,163.043 236.893,163.043 237.302 C 163.043 237.719,163.281 238.043,163.587 238.043 C 163.886 238.043,164.130 238.228,164.130 238.454 C 164.130 239.817,167.160 240.516,167.641 239.264 C 167.746 238.991,167.998 238.768,168.203 238.768 C 168.407 238.768,169.112 238.197,169.770 237.500 C 170.428 236.803,171.140 236.232,171.352 236.232 C 171.565 236.232,171.739 236.013,171.739 235.747 C 171.739 235.480,172.147 235.076,172.645 234.849 C 173.143 234.622,173.551 234.188,173.551 233.885 C 173.551 233.581,173.717 233.333,173.920 233.333 C 174.127 233.333,174.195 232.958,174.076 232.482 C 173.937 231.930,174.252 230.806,174.975 229.277 C 176.899 225.204,177.095 225.358,170.018 225.391 C 166.680 225.407,163.745 225.502,163.496 225.602 M227.899 226.122 C 227.899 226.539,228.124 227.314,228.400 227.843 C 228.876 228.756,229.171 229.404,230.653 232.790 C 231.002 233.587,231.299 234.809,231.314 235.505 C 231.337 236.622,232.192 238.043,232.840 238.043 C 232.968 238.043,233.253 238.279,233.475 238.567 C 233.696 238.855,234.117 239.140,234.412 239.201 C 235.101 239.344,235.870 240.057,235.870 240.554 C 235.870 240.767,236.114 240.942,236.413 240.942 C 236.712 240.942,236.957 241.101,236.957 241.295 C 236.957 241.489,237.446 241.901,238.043 242.210 C 238.641 242.519,239.130 243.013,239.130 243.306 C 239.130 243.600,239.439 243.841,239.816 243.841 C 240.194 243.841,240.595 244.082,240.708 244.377 C 240.885 244.838,239.859 244.927,233.410 245.011 L 225.906 245.109 225.997 246.014 C 226.048 246.513,226.240 247.246,226.426 247.645 C 226.611 248.043,227.028 249.022,227.353 249.819 C 227.677 250.616,228.177 251.730,228.464 252.294 C 228.751 252.858,228.986 253.796,228.986 254.377 C 228.986 255.249,229.137 255.435,229.847 255.435 C 230.321 255.435,230.911 255.679,231.159 255.978 C 231.414 256.286,232.204 256.522,232.977 256.522 C 233.857 256.522,234.417 256.715,234.551 257.065 C 235.064 258.401,239.855 257.465,239.855 256.029 C 239.855 255.702,239.980 255.435,240.132 255.435 C 241.523 255.435,242.657 247.185,241.518 245.343 C 241.377 245.115,241.417 244.928,241.607 244.928 C 241.796 244.928,242.045 245.172,242.160 245.471 C 242.478 246.299,245.035 246.021,244.973 245.165 C 244.933 244.607,245.907 242.767,246.127 242.987 C 246.262 243.121,246.474 242.719,246.600 242.093 C 246.725 241.466,246.971 241.042,247.146 241.150 C 247.321 241.259,247.464 241.186,247.464 240.989 C 247.464 240.792,247.668 240.416,247.918 240.153 C 248.167 239.889,248.690 239.069,249.079 238.330 C 249.469 237.590,249.867 237.065,249.965 237.163 C 250.062 237.260,250.436 236.736,250.796 235.997 C 251.511 234.526,251.675 232.246,251.066 232.246 C 250.855 232.246,250.783 232.083,250.906 231.884 C 251.029 231.685,250.983 231.522,250.803 231.522 C 250.623 231.522,250.174 230.961,249.805 230.276 C 249.436 229.591,248.978 229.127,248.787 229.245 C 248.595 229.363,248.548 229.283,248.682 229.067 C 248.815 228.850,248.555 228.267,248.104 227.771 C 247.652 227.275,246.999 226.530,246.652 226.116 C 245.660 224.931,227.899 224.936,227.899 226.122 M175.819 234.436 C 176.046 234.800,176.338 235.032,176.468 234.952 C 176.598 234.872,177.014 235.040,177.392 235.326 C 178.196 235.935,178.986 236.024,178.986 235.507 C 178.986 235.308,178.679 235.145,178.305 235.145 C 177.931 235.145,177.437 234.918,177.206 234.641 C 176.508 233.799,175.311 233.623,175.819 234.436 M176.289 237.037 C 175.484 238.186,175.467 244.928,176.268 244.928 C 176.567 244.928,176.812 245.172,176.812 245.471 C 176.812 245.770,177.151 246.354,177.566 246.769 C 178.678 247.881,178.788 247.868,168.156 247.838 L 158.333 247.811 158.333 249.289 C 158.333 250.102,158.189 250.678,158.012 250.569 C 157.518 250.264,157.257 251.716,157.251 254.794 C 157.245 258.267,156.452 258.023,167.324 257.892 L 175.771 257.790 176.238 256.884 C 177.003 255.399,177.821 253.491,178.024 252.717 C 179.181 248.296,179.629 248.175,182.484 251.511 L 183.622 252.840 184.396 252.119 C 184.973 251.581,185.445 251.458,186.245 251.633 C 187.043 251.809,187.376 251.722,187.539 251.297 C 187.660 250.982,188.067 250.725,188.445 250.725 C 188.822 250.725,189.090 250.528,189.040 250.288 C 188.990 250.048,189.116 249.844,189.320 249.835 C 189.524 249.826,190.175 249.370,190.766 248.822 C 191.357 248.274,192.046 247.826,192.297 247.826 C 192.548 247.826,192.754 247.582,192.754 247.283 C 192.754 246.984,192.917 246.739,193.116 246.739 C 193.341 246.739,193.478 244.746,193.478 241.486 L 193.478 236.232 190.031 236.232 C 187.988 236.232,186.302 236.408,185.891 236.665 C 185.354 237.000,184.985 237.000,184.249 236.665 C 182.448 235.844,176.944 236.102,176.289 237.037 M199.345 254.013 C 199.416 254.227,199.630 254.402,199.819 254.402 C 200.008 254.402,200.221 254.227,200.293 254.013 C 200.364 253.798,200.151 253.623,199.819 253.623 C 199.487 253.623,199.273 253.798,199.345 254.013 M158.062 261.488 C 157.154 261.662,156.939 262.319,157.790 262.319 C 158.262 262.319,158.572 263.707,158.376 264.946 C 158.353 265.095,158.478 265.217,158.655 265.217 C 158.832 265.217,159.085 265.793,159.217 266.496 C 159.349 267.199,159.612 267.678,159.801 267.561 C 159.993 267.443,160.145 267.902,160.145 268.599 C 160.145 269.377,160.351 269.929,160.688 270.059 C 160.987 270.173,161.232 270.495,161.232 270.772 C 161.232 271.050,161.517 271.258,161.866 271.233 C 162.925 271.159,164.855 270.142,164.855 269.658 C 164.855 269.408,165.100 269.203,165.399 269.203 C 165.697 269.203,165.946 269.081,165.952 268.931 C 165.957 268.782,166.609 268.260,167.401 267.771 C 168.193 267.283,168.841 266.753,168.841 266.594 C 168.841 266.435,169.090 266.304,169.395 266.304 C 169.701 266.304,170.044 266.060,170.159 265.761 C 170.274 265.462,170.512 265.217,170.688 265.217 C 170.994 265.217,171.565 264.767,173.961 262.635 C 174.852 261.842,174.933 261.646,174.442 261.458 C 173.795 261.209,159.369 261.236,158.062 261.488 M171.014 343.276 C 171.014 343.961,171.140 344.600,171.293 344.695 C 171.446 344.789,171.510 344.228,171.436 343.448 C 171.269 341.696,171.014 341.592,171.014 343.276 " stroke="none" fill="#b4ec9c" fill-rule="evenodd"></path><path id="path6" d="M120.652 120.147 C 120.059 120.511,119.996 120.614,120.471 120.447 C 120.870 120.307,121.766 120.070,122.464 119.920 C 123.710 119.653,123.713 119.648,122.645 119.620 C 122.047 119.604,121.150 119.841,120.652 120.147 M126.812 119.920 C 127.509 120.070,128.406 120.307,128.804 120.447 C 129.279 120.614,129.217 120.511,128.623 120.147 C 128.125 119.841,127.228 119.604,126.630 119.620 C 125.562 119.648,125.565 119.653,126.812 119.920 M117.286 121.977 C 116.331 122.693,115.647 123.377,115.766 123.495 C 115.884 123.614,116.095 123.538,116.233 123.327 C 116.372 123.115,117.203 122.427,118.080 121.797 C 118.957 121.167,119.527 120.657,119.348 120.663 C 119.168 120.669,118.241 121.260,117.286 121.977 M131.014 121.692 C 132.526 122.805,133.938 124.264,134.908 125.715 C 135.238 126.207,135.507 126.394,135.507 126.130 C 135.507 125.520,130.663 120.652,130.056 120.652 C 129.806 120.652,130.237 121.120,131.014 121.692 M114.493 125.000 C 114.067 125.598,113.800 126.087,113.900 126.087 C 114.000 126.087,114.429 125.598,114.855 125.000 C 115.281 124.402,115.548 123.913,115.448 123.913 C 115.348 123.913,114.918 124.402,114.493 125.000 M113.063 127.853 C 112.820 128.438,112.694 129.299,112.783 129.766 C 112.927 130.520,112.950 130.501,112.994 129.596 C 113.021 129.035,113.220 128.246,113.435 127.844 C 113.651 127.441,113.754 127.039,113.665 126.950 C 113.576 126.861,113.305 127.267,113.063 127.853 M129.076 128.842 C 128.628 129.353,128.261 129.931,128.261 130.125 C 128.261 130.319,128.113 130.386,127.933 130.275 C 127.509 130.013,124.965 132.258,125.219 132.670 C 125.325 132.842,125.567 132.887,125.756 132.771 C 125.944 132.654,125.988 132.379,125.852 132.160 C 125.694 131.903,125.821 131.843,126.209 131.992 C 126.645 132.160,126.812 132.027,126.812 131.510 C 126.812 131.118,126.984 130.797,127.195 130.797 C 127.406 130.797,127.463 131.001,127.320 131.250 C 127.178 131.499,127.570 131.230,128.192 130.651 C 128.814 130.073,129.238 129.463,129.135 129.297 C 129.032 129.130,129.160 129.075,129.420 129.175 C 129.680 129.275,130.098 129.028,130.348 128.627 C 131.037 127.524,130.092 127.683,129.076 128.842 M136.358 131.522 C 136.358 133.216,136.421 133.909,136.497 133.062 C 136.573 132.215,136.573 130.829,136.497 129.982 C 136.421 129.135,136.358 129.828,136.358 131.522 M119.115 131.762 C 119.365 131.863,119.491 132.073,119.396 132.228 C 119.300 132.383,119.869 133.109,120.661 133.842 C 121.453 134.575,122.101 135.005,122.101 134.797 C 122.101 134.590,122.346 134.420,122.645 134.420 C 122.944 134.420,123.188 134.582,123.188 134.779 C 123.188 134.976,123.514 134.859,123.913 134.517 C 124.312 134.176,124.638 133.587,124.638 133.208 C 124.638 132.628,124.550 132.593,124.077 132.985 C 123.629 133.357,123.611 133.511,123.986 133.754 C 124.254 133.926,123.909 133.954,123.188 133.819 C 122.491 133.688,121.353 133.117,120.660 132.551 C 119.967 131.985,119.233 131.535,119.030 131.550 C 118.826 131.566,118.864 131.662,119.115 131.762 M112.736 133.514 C 112.720 134.112,112.957 135.009,113.263 135.507 C 113.627 136.101,113.730 136.163,113.563 135.688 C 113.423 135.290,113.186 134.393,113.036 133.696 C 112.769 132.449,112.764 132.446,112.736 133.514 M135.145 136.831 C 135.145 137.413,132.584 140.231,131.036 141.352 C 130.247 141.924,129.771 142.391,129.979 142.391 C 130.970 142.391,135.875 137.203,135.366 136.694 C 135.244 136.573,135.145 136.634,135.145 136.831 M114.493 138.043 C 114.918 138.641,115.348 139.130,115.448 139.130 C 115.548 139.130,115.281 138.641,114.855 138.043 C 114.429 137.446,114.000 136.957,113.900 136.957 C 113.800 136.957,114.067 137.446,114.493 138.043 M115.580 139.643 C 115.580 139.872,119.079 142.391,119.396 142.391 C 119.549 142.391,118.957 141.876,118.080 141.245 C 117.203 140.615,116.431 139.963,116.365 139.796 C 116.243 139.491,115.580 139.362,115.580 139.643 M123.098 143.381 C 123.945 143.458,125.331 143.458,126.178 143.381 C 127.024 143.305,126.332 143.243,124.638 143.243 C 122.944 143.243,122.251 143.305,123.098 143.381 M169.978 341.273 C 170.448 341.655,170.903 341.897,170.988 341.813 C 171.174 341.628,169.877 340.608,169.434 340.591 C 169.263 340.585,169.508 340.892,169.978 341.273 M186.322 345.199 C 194.443 345.254,207.731 345.254,215.851 345.199 C 223.972 345.145,217.328 345.100,201.087 345.100 C 184.846 345.100,178.202 345.145,186.322 345.199 " stroke="none" fill="#c9f4b1" fill-rule="evenodd"></path><path id="path7" d="" stroke="none" fill="#fcf8100" fill-rule="evenodd"></path><path id="path8" d="" stroke="none" fill="#fcf8100" fill-rule="evenodd"></path></g></svg>